<svg width="23" height="21" viewBox="0 0 33 31" fill="none" xmlns="http://www.w3.org/2000/svg">
<path d="M15.3838 27.2944C21.6143 27.2944 26.6651 22.2499 26.6651 16.0271C26.6651 9.80432 21.6143 4.75977 15.3838 4.75977C9.15333 4.75977 4.10254 9.80432 4.10254 16.0271C4.10254 22.2499 9.15333 27.2944 15.3838 27.2944Z" stroke="black" stroke-width="1.48258" stroke-miterlimit="10"/>
<path d="M11.3685 10.6348C11.045 10.6348 10.7287 10.7306 10.4597 10.9101C10.1907 11.0896 9.98098 11.3447 9.85711 11.6432C9.73323 11.9417 9.70074 12.2702 9.76375 12.5871C9.82676 12.9041 9.98244 13.1952 10.2111 13.4238C10.4398 13.6524 10.7312 13.8082 11.0484 13.8714C11.3657 13.9346 11.6947 13.9025 11.9936 13.779C12.2926 13.6556 12.5483 13.4463 12.7282 13.1778C12.9082 12.9093 13.0044 12.5935 13.0047 12.2703C13.0047 11.8368 12.8323 11.421 12.5255 11.1143C12.2188 10.8077 11.8026 10.6352 11.3685 10.6348ZM11.7265 12.2703C11.587 12.2703 11.4506 12.229 11.3345 12.1516C11.2185 12.0741 11.128 11.9641 11.0746 11.8353C11.0212 11.7065 11.0072 11.5648 11.0345 11.4281C11.0617 11.2914 11.1289 11.1658 11.2276 11.0672C11.3263 10.9687 11.452 10.9016 11.5889 10.8744C11.7258 10.8472 11.8676 10.8611 11.9966 10.9145C12.1255 10.9678 12.2357 11.0581 12.3133 11.174C12.3908 11.2899 12.4322 11.4262 12.4322 11.5656C12.4322 11.7525 12.3578 11.9318 12.2255 12.0639C12.0932 12.1961 11.9137 12.2703 11.7265 12.2703Z" fill="black" stroke="black" stroke-width="0.507042" stroke-miterlimit="10"/>
<path d="M19.4008 10.6348C19.0772 10.6348 18.7608 10.7306 18.4918 10.9102C18.2227 11.0897 18.013 11.3449 17.8892 11.6435C17.7654 11.9421 17.733 12.2707 17.7961 12.5877C17.8592 12.9047 18.015 13.1958 18.2439 13.4244C18.4727 13.6529 18.7642 13.8085 19.0816 13.8716C19.399 13.9346 19.7279 13.9023 20.0269 13.7786C20.3259 13.6549 20.5814 13.4455 20.7612 13.1767C20.9409 12.908 21.0369 12.5921 21.0369 12.2689C21.0365 11.8356 20.864 11.4202 20.5573 11.1138C20.2505 10.8074 19.8346 10.6352 19.4008 10.6348ZM19.7528 12.2689C19.613 12.2697 19.4761 12.2291 19.3595 12.1522C19.2428 12.0752 19.1517 11.9653 19.0976 11.8366C19.0436 11.7078 19.0291 11.5658 19.0559 11.4288C19.0828 11.2918 19.1498 11.1658 19.2484 11.0668C19.3471 10.9679 19.4729 10.9004 19.61 10.873C19.7471 10.8457 19.8893 10.8596 20.0184 10.913C20.1476 10.9664 20.258 11.057 20.3355 11.1732C20.4131 11.2894 20.4543 11.4259 20.454 11.5656C20.454 11.7517 20.3803 11.9303 20.2489 12.0624C20.1176 12.1944 19.9392 12.2692 19.7528 12.2703V12.2689Z" fill="black" stroke="black" stroke-width="0.507042" stroke-miterlimit="10"/>
<path d="M15.3833 20.0215L19.9973 20.0377C19.9869 22.2052 17.907 23.9812 15.3833 23.9812C12.8596 23.9812 10.7693 22.1934 10.7693 20.0215H15.3833Z" fill="black" stroke="black" stroke-width="0.582654" stroke-miterlimit="10"/>
<path d="M28.2669 19.706H26.7284C26.6264 19.706 26.5285 19.6656 26.4564 19.5935C26.3843 19.5215 26.3438 19.4238 26.3438 19.3219V12.7338C26.3437 12.6319 26.3843 12.5342 26.4564 12.4621C26.5285 12.3901 26.6264 12.3496 26.7284 12.3496H28.2669C28.6665 12.35 29.0497 12.5087 29.3323 12.791C29.6149 13.0733 29.7739 13.456 29.7743 13.8552V18.2005C29.7739 18.5996 29.6149 18.9824 29.3323 19.2646C29.0497 19.5469 28.6665 19.7056 28.2669 19.706Z" fill="black" stroke="black" stroke-width="0.538176" stroke-miterlimit="10"/>
<path d="M2.40684 19.706H3.94532C4.04733 19.706 4.14516 19.6656 4.21729 19.5935C4.28942 19.5215 4.32995 19.4238 4.32995 19.3219V12.7338C4.32995 12.6319 4.28942 12.5342 4.21729 12.4621C4.14516 12.3901 4.04733 12.3496 3.94532 12.3496H2.40684C2.00716 12.35 1.62397 12.5087 1.34136 12.791C1.05875 13.0733 0.899806 13.456 0.899414 13.8552V18.2005C0.899806 18.5996 1.05875 18.9824 1.34136 19.2646C1.62397 19.5469 2.00716 19.7056 2.40684 19.706Z" fill="black" stroke="black" stroke-width="0.538176" stroke-miterlimit="10"/>
<path d="M31.2832 15.626H29.3157V16.4312H31.2832V15.626Z" fill="black" stroke="black" stroke-width="0.538176" stroke-miterlimit="10"/>
<path d="M31.2686 16.3607V1.48828H30.9683V16.3607H31.2686Z" fill="black" stroke="black" stroke-width="0.673091" stroke-miterlimit="10"/>
<path d="M31.1192 1.84203C31.5367 1.84203 31.8751 1.504 31.8751 1.08703C31.8751 0.670055 31.5367 0.332031 31.1192 0.332031C30.7017 0.332031 30.3633 0.670055 30.3633 1.08703C30.3633 1.504 30.7017 1.84203 31.1192 1.84203Z" fill="black" stroke="black" stroke-width="0.673091" stroke-miterlimit="10"/>
<path d="M21.0418 29.0342H9.72504C9.60413 29.0342 9.5061 29.1321 9.5061 29.2528V29.3341C9.5061 29.4549 9.60413 29.5528 9.72504 29.5528H21.0418C21.1627 29.5528 21.2607 29.4549 21.2607 29.3341V29.2528C21.2607 29.1321 21.1627 29.0342 21.0418 29.0342Z" fill="black" stroke="black" stroke-width="0.349889" stroke-miterlimit="10"/>
<path d="M19.4724 30.3164H11.2948C11.1919 30.3164 11.1084 30.3998 11.1084 30.5026V30.6488C11.1084 30.7517 11.1919 30.835 11.2948 30.835H19.4724C19.5754 30.835 19.6588 30.7517 19.6588 30.6488V30.5026C19.6588 30.3998 19.5754 30.3164 19.4724 30.3164Z" fill="black" stroke="black" stroke-width="0.297999" stroke-miterlimit="10"/>
</svg>
