<svg width="191" height="140" viewBox="0 0 191 140" fill="none" xmlns="http://www.w3.org/2000/svg">
<path d="M131.898 26.205C130.839 25.735 130.185 25.445 129.291 25.048C130.263 28.78 131.214 32.279 132.083 35.798C133.892 43.119 136.1 50.339 137.605 57.734C138.238 60.841 138.112 63.989 136.572 66.928C136.208 63.544 135.749 60.181 134.743 56.962C132.641 50.242 130.818 43.45 129.151 36.608C127.574 30.137 125.943 23.68 124.359 17.211C123.984 15.68 126.009 12.732 126.15 12.709C128.139 16.955 129.737 21.597 131.898 26.205Z" fill="white"/>
<path d="M93.1689 63.0997C94.3429 60.2667 96.0399 57.4777 99.5439 57.0137C99.5539 58.0927 99.5579 58.4827 99.5819 59.1747C99.7129 62.9507 103.101 66.9847 106.561 67.9207C109.176 68.6277 111.29 68.8257 113.883 68.3077C115.344 68.0157 116.854 67.6427 116.854 67.6427C117.523 69.5227 117.491 70.7537 117.491 70.7537C116.97 71.1667 105.754 74.8957 100.67 68.5917C99.3769 66.9887 99.1489 64.8797 98.7569 62.9117C98.5509 61.8787 98.2899 61.5377 97.1929 61.8537C96.0679 62.1757 94.5809 62.7027 93.1689 63.0997Z" fill="white"/>
<path d="M105.778 8.66113C105.652 10.6621 104.467 11.7791 103.179 12.7501C100.831 14.5191 98.3689 16.1331 96.0419 17.9291C90.8729 21.9181 85.1909 25.1841 80.3119 29.5791C79.5159 30.2961 78.7839 31.1151 77.7769 31.6321C78.2709 28.5591 79.3309 26.7811 82.3459 24.6861C89.9039 19.4341 97.5169 14.2651 105.108 9.06513C105.269 8.95513 105.442 8.86313 105.778 8.66113Z" fill="white"/>
<path d="M105.646 74.5429C104.241 76.3809 103.218 77.2279 102.182 78.4609C101.672 79.0679 100.935 79.7439 101.411 80.6499C102.88 83.4449 108.425 80.3028 110.422 78.5478C111.638 77.4788 112.712 76.2418 114.154 74.7698C112.61 77.3008 111.646 78.8079 110.257 80.1369C108.403 81.9089 106.726 83.0758 104.157 83.6038C103.685 83.7008 103.179 83.7858 102.711 83.7158C100.389 83.3698 99.674 82.0989 100.493 79.8459C100.643 79.4339 100.846 79.0419 101.013 78.6369C101.211 78.1579 101.359 77.7468 100.571 77.6728C99.368 77.5608 98.913 76.7749 99.022 75.6119C99.12 74.5619 100.428 73.0548 101.331 72.9798C101.757 72.9448 102.316 72.9429 102.273 73.6009C102.23 74.2539 101.626 74.6649 101.626 74.6649C101.147 74.6679 100.183 74.6319 100.278 75.4079C100.323 75.7799 101.091 76.2808 101.641 76.2578C103.241 76.1908 103.98 74.9379 104.911 74.7189C105.487 74.5829 104.985 74.7189 105.646 74.5429Z" fill="white"/>
<path d="M67.8292 67.9556C66.7692 65.5006 66.6292 63.2466 66.3682 61.0076C65.9972 57.8286 64.6502 54.9476 63.5782 51.9856C63.0072 50.4066 62.8512 48.8826 63.7142 47.3056C64.1592 46.4926 65.0202 46.3006 65.5972 45.5906C64.7682 45.0826 64.1262 45.2266 63.5592 46.3846C63.4402 44.9366 63.4812 43.8726 64.5382 43.3646C65.3522 42.9726 67.4802 44.3216 67.7982 45.2406C67.9162 45.5806 67.7332 45.7986 67.6202 46.0696C67.3282 46.7706 66.7452 47.1116 66.1152 47.4066C63.8072 48.4876 63.4872 49.0286 64.5772 51.4356C66.2192 55.0566 67.1522 58.8516 67.7212 62.7606C67.9552 64.3556 67.9522 65.9706 67.8292 67.9556Z" fill="white"/>
<path d="M127.437 81.5418C126.689 80.7188 126.04 79.8438 125.31 79.0098C124.781 78.4058 124.164 77.3808 123.108 78.5028C122.924 78.6988 122.759 78.3948 122.664 78.2688C122.196 77.6438 121.646 76.9158 121.457 76.1488C121.348 75.7048 121.369 75.1008 121.946 74.8558C122.545 74.6008 122.982 75.0878 123.262 75.5508C124.044 76.8428 124.724 77.2608 126.039 78.5518C126.171 78.7468 126.62 79.1508 126.877 79.0318C127.126 78.9168 127.154 78.6448 127.138 78.3868C127.08 77.4458 126.92 76.4978 126.98 75.5648C127.101 73.6858 128.421 72.6818 129.755 73.1968C130.699 73.5618 130.729 74.4668 130.639 74.9998C130.507 75.7868 129.803 75.2218 129.355 75.0648C128.367 74.7198 127.692 75.1808 127.76 76.4798C127.832 77.8618 128.09 79.2498 127.824 80.6438C127.76 80.9818 127.794 81.3398 127.437 81.5418Z" fill="white"/>
<path d="M99.0589 11.3016C99.1579 9.99356 99.2319 8.81056 99.3399 7.63056C99.5109 5.76156 98.8749 4.19756 97.4859 3.02956C96.5949 2.27956 97.151 1.62656 97.578 1.19056C98.042 0.716556 98.3959 1.41256 98.6589 1.74656C100.753 4.40456 101.278 9.30956 99.0589 11.3016Z" fill="white"/>
<path d="M91.1593 58.4262C90.4033 58.2782 89.3563 58.1262 88.7373 58.0182C82.6393 56.9492 78.6433 53.4762 76.7863 47.4012C75.6813 43.7842 74.6883 40.1392 73.7193 36.4842C71.0763 26.5142 68.4193 16.5482 65.6893 6.28516C65.0033 7.98216 64.4093 9.38316 63.8803 10.8102C63.7513 11.1582 63.7593 11.6042 63.8343 11.9792C64.9823 17.7862 66.1563 23.5882 67.3163 29.3922C69.6853 41.2472 71.9013 53.1372 75.1293 64.7952C75.3223 65.4932 75.2213 65.7262 74.4833 65.8862C71.1273 66.6152 68.2333 68.2952 65.6413 70.5512C63.7483 72.1982 61.8063 73.7912 59.9753 75.5072C57.2893 78.0252 53.0663 78.2202 52.1053 72.9742C52.0693 72.7792 50.4733 67.6202 60.5593 54.0152C59.5443 54.2112 59.0203 54.7152 58.5843 55.2892C48.6223 68.3782 51.4083 74.7852 51.4083 74.7852C51.4083 74.7852 53.4243 83.1142 61.1803 79.0342C63.1293 78.0082 64.3393 75.9242 65.9713 74.4292C69.0413 71.6152 72.5703 69.9442 76.7913 69.8692C79.0823 69.8282 81.0663 70.7862 83.0943 71.5732C84.4863 72.1132 85.0503 71.5722 85.4693 70.3742C86.2043 68.2732 86.0773 67.8942 84.0813 66.8992C83.1663 66.4432 82.2333 66.0082 81.2733 65.6662C79.2943 64.9622 78.0033 63.5442 77.1723 61.6622C76.4913 60.1202 76.0603 58.4712 75.8483 56.8112C75.7153 55.7702 75.2403 54.6972 75.6583 53.3102C75.8723 53.6492 75.9643 53.7642 76.0233 53.8952C78.1013 58.4822 82.4023 60.1822 86.4463 61.7862C89.0053 62.7722 88.8943 62.7292 88.8943 62.7292C89.1463 62.0642 90.5223 59.2252 91.1593 58.4262Z" fill="white"/>
<path d="M77.8013 19.575C75.2033 20.783 74.1003 20.147 73.5823 17.432C73.4073 16.516 73.4203 13.733 73.4203 12.248C72.8173 14.049 72.9193 17.462 72.9683 17.644C73.0103 18.791 73.1973 19.978 73.8223 20.956C74.3963 21.854 75.2153 22.653 76.4373 22.225C77.6653 21.795 78.1383 20.903 77.8013 19.575Z" fill="white"/>
<path d="M134.069 63.0621C133.254 60.0621 130.633 59.0491 127.52 60.5571C126.411 61.0941 126.187 60.8831 125.947 59.7601C125.372 57.0651 124.752 54.3711 123.958 51.7361L122.458 46.0071C121.307 41.8221 120.033 37.6731 118.806 33.5101C116.911 27.0831 112.797 13.6831 113.066 13.4381C113.066 13.4381 115.256 14.1021 116.389 14.5291C113.907 10.2351 111.448 6.92906 109.07 3.03906C108.528 4.78706 106.975 5.91706 107.605 7.88706C111.896 21.3011 116.649 34.3981 120.457 48.1361C120.789 49.3341 122.829 57.3981 123.67 60.1231C124.177 61.7651 123.89 62.5671 122.347 63.8121C121.694 64.3391 120.292 65.3011 120.292 65.3011C120.365 65.5121 121.068 67.4931 121.147 68.8391C122.356 67.9351 122.698 67.7371 123.637 66.9071C124.508 66.1371 125.052 66.0391 125.732 67.1721C126.602 68.6221 127.825 69.7801 129.307 70.6121C130.521 71.2931 131.709 71.2121 132.54 70.0751C134.058 67.9971 134.765 65.6231 134.069 63.0621ZM131.493 66.5261C130.68 66.5691 129.866 66.3621 129.127 65.9261C128.528 65.5731 127.892 64.7481 127.923 64.4671C127.923 64.4671 131.6 63.3301 132.503 64.9151C133.062 65.8941 132.422 66.4761 131.493 66.5261Z" fill="white"/>
<path d="M84.2513 76.5756C83.5883 76.1456 82.5153 75.7476 82.2953 75.8476C81.1003 76.1926 78.8263 77.6986 79.8753 79.8606C80.0183 80.1556 79.8393 80.4106 79.6103 80.6436C78.8533 81.4086 78.1683 82.2366 77.2543 82.8436C74.2913 84.8086 70.9993 85.9186 67.6113 86.7916C67.0663 86.9046 66.5223 87.0176 65.5713 87.2146C66.7593 87.4046 70.5643 86.9676 71.6983 86.7186C74.6953 86.0626 77.6843 85.0826 79.2623 82.2136C80.2023 80.5056 81.2973 80.6126 82.7003 80.8406C83.2263 80.9256 83.7483 81.0696 84.2763 81.0986C85.1103 81.1456 85.8203 80.6896 85.8343 79.8886C85.8573 78.5756 85.3663 77.2986 84.2513 76.5756ZM83.6113 79.5606C82.7373 79.5346 81.0993 78.4816 81.1033 78.0506C81.1033 78.0506 81.1373 77.9776 81.7983 77.9976C82.8183 78.0876 83.7583 78.1396 84.0633 79.1986C84.1603 79.5316 83.8853 79.5686 83.6113 79.5606Z" fill="white"/>
<path d="M117.48 62.2906C116.305 60.7516 112.512 55.6256 104.516 56.3216C100.907 56.6366 100.587 57.0036 100.587 57.0036C100.465 59.8976 100.946 60.7706 101.003 60.8466C104.139 59.8596 107.061 60.0916 110.112 61.1256C113.595 62.3066 117.044 64.1416 118.095 67.6586C119.617 72.7476 117.813 78.1486 114.042 82.1346C112.332 83.9416 110.486 85.6226 108.23 86.5126C105.495 87.5916 102.689 87.2636 100.041 85.8046C96.5152 83.8616 93.3922 81.5486 91.7222 77.6306C90.3652 74.4476 90.0862 70.7506 90.7282 67.4096C91.5232 63.2736 92.9092 59.8016 96.0922 56.8266C98.6762 54.4106 101.529 52.3586 104.327 50.2226C107.52 47.7836 110.728 45.3046 112.253 41.3036C112.544 40.4146 112.644 40.2516 112.741 39.4326C112.115 39.6276 111.659 39.8866 111.29 40.2966C109.98 41.4026 108.651 42.4866 107.363 43.6196C103.766 46.7826 99.8122 48.7086 94.9022 47.5276C91.0692 46.6056 87.9742 44.6676 86.1002 41.0106C85.7572 40.3406 85.7932 39.8136 86.3032 39.1266C87.4002 37.6496 89.6002 35.7796 91.1592 34.9386C96.7092 31.9446 102.913 33.8596 102.913 33.8596C103.011 33.4746 101.378 32.2416 100.81 31.9046C94.5872 28.2186 90.2602 31.5086 88.5722 33.2606C86.0532 35.8746 84.9562 39.1836 83.9732 42.5646C83.7692 43.2686 84.0082 43.9296 84.2942 44.5696C86.2842 49.0236 89.9372 51.0346 94.4592 51.8116C95.1002 51.9216 95.0952 51.9886 96.3262 52.0536C96.6762 52.0716 95.8402 53.4666 95.3472 54.0656C95.0962 54.3696 90.7272 60.3536 89.4932 63.9726C86.3162 73.2896 89.0852 85.1106 98.7542 89.6646C106.176 93.1596 112.973 89.0196 115.775 84.9756C119.858 79.0866 122.652 69.0676 117.48 62.2906Z" fill="#E01B22"/>
<path d="M106.265 24.0379C103.667 25.2459 102.564 24.6099 102.046 21.8949C101.871 20.9789 101.884 18.1959 101.884 16.7109C101.281 18.5119 101.383 21.9249 101.432 22.1069C101.474 23.2539 101.661 24.4409 102.286 25.4189C102.86 26.3169 103.679 27.1159 104.901 26.6879C106.13 26.2569 106.602 25.3649 106.265 24.0379Z" fill="white"/>
<path d="M76.2102 79.286C73.5942 80.049 72.6432 79.29 72.5332 76.657C72.4962 75.769 72.8952 73.149 73.1022 71.749C72.2832 73.359 71.9042 76.589 71.9252 76.767C71.8052 77.854 71.8162 78.999 72.2692 80.01C72.6852 80.939 73.3452 81.81 74.5562 81.584C75.7732 81.357 76.3422 80.585 76.2102 79.286Z" fill="white"/>
<path d="M88.8249 90.0985C86.2089 90.8615 85.2579 90.1025 85.1479 87.4695C85.1109 86.5815 85.5099 83.9615 85.7169 82.5615C84.8979 84.1715 84.5189 87.4015 84.5399 87.5795C84.4199 88.6665 84.4309 89.8115 84.8839 90.8225C85.2999 91.7515 85.9609 92.6225 87.1709 92.3965C88.3879 92.1695 88.9569 91.3975 88.8249 90.0985Z" fill="white"/>
<path d="M140.337 37.8119C136.904 38.8129 135.655 37.8169 135.511 34.3609C135.462 33.1959 135.987 29.7559 136.258 27.9189C135.183 30.0319 134.686 34.2719 134.713 34.5059C134.555 35.9329 134.57 37.4359 135.164 38.7629C135.71 39.9829 136.577 41.1259 138.166 40.8289C139.763 40.5299 140.51 39.5169 140.337 37.8119Z" fill="white"/>
<path d="M87.6589 14.6037C86.5919 13.1867 85.6669 11.6797 84.6259 10.2427C83.8719 9.20172 82.9919 7.43772 81.4859 9.36872C81.2229 9.70572 80.9889 9.18372 80.8529 8.96572C80.1849 7.88972 79.4009 6.63472 79.1309 5.31572C78.9749 4.55072 79.0059 3.51072 79.8289 3.08872C80.6839 2.64972 81.3059 3.48772 81.7059 4.28472C82.8209 6.50972 83.7919 7.22972 85.6659 9.45272C85.8549 9.78872 86.4939 10.4837 86.8609 10.2787C87.2159 10.0797 87.2559 9.61272 87.2329 9.16872C87.1499 7.54772 86.9229 5.91572 87.0079 4.30872C87.1809 1.07272 89.0629 -0.656277 90.9659 0.231723C92.3119 0.859723 92.3549 2.41972 92.2269 3.33772C92.0389 4.69272 91.0339 3.71972 90.3949 3.44972C88.9859 2.85472 88.0229 3.64972 88.1199 5.88672C88.2229 8.26672 88.5899 10.6577 88.2109 13.0577C88.1199 13.6397 88.1689 14.2557 87.6589 14.6037Z" fill="white"/>
<path d="M60.6871 25.6181C60.0301 24.6811 59.4601 23.6851 58.8181 22.7351C58.3531 22.0471 57.8111 20.8811 56.8841 22.1581C56.7221 22.3811 56.5781 22.0351 56.4941 21.8911C56.0831 21.1801 55.5991 20.3501 55.4331 19.4781C55.3371 18.9721 55.3561 18.2851 55.8631 18.0061C56.3901 17.7161 56.7731 18.2701 57.0191 18.7971C57.7061 20.2681 58.3041 20.7441 59.4591 22.2131C59.5751 22.4351 59.9691 22.8951 60.1951 22.7591C60.4141 22.6281 60.4381 22.3191 60.4241 22.0251C60.3731 20.9541 60.2331 19.8751 60.2861 18.8121C60.3921 16.6721 61.5521 15.5301 62.7241 16.1171C63.5541 16.5321 63.5801 17.5631 63.5011 18.1701C63.3851 19.0661 62.7661 18.4231 62.3721 18.2441C61.5041 17.8511 60.9111 18.3761 60.9701 19.8551C61.0331 21.4281 61.2601 23.0091 61.0261 24.5961C60.9721 24.9801 61.0011 25.3881 60.6871 25.6181Z" fill="white"/>
<path d="M64.055 41.8685C63.51 41.0915 63.037 40.2644 62.505 39.4764C62.119 38.9054 61.67 37.9384 60.9 38.9974C60.766 39.1824 60.646 38.8954 60.577 38.7764C60.236 38.1864 59.835 37.4984 59.697 36.7744C59.617 36.3544 59.633 35.7844 60.054 35.5534C60.491 35.3124 60.809 35.7725 61.013 36.2095C61.583 37.4295 62.079 37.8245 63.037 39.0445C63.133 39.2285 63.461 39.6104 63.648 39.4974C63.83 39.3884 63.85 39.1325 63.838 38.8885C63.796 37.9995 63.679 37.1045 63.723 36.2235C63.811 34.4485 64.773 33.5005 65.746 33.9875C66.434 34.3325 66.456 35.1874 66.391 35.6904C66.295 36.4334 65.781 35.9005 65.455 35.7525C64.735 35.4265 64.243 35.8624 64.292 37.0884C64.345 38.3934 64.532 39.7055 64.338 41.0215C64.291 41.3395 64.315 41.6775 64.055 41.8685Z" fill="white"/>
<path d="M61.0241 47.4579C54.3951 49.2519 52.1861 47.0809 52.4271 39.8969C52.5081 37.4739 54.0081 30.3789 54.7931 26.5889C52.4511 30.8859 50.8821 39.6439 50.8991 40.1319C50.3901 43.0799 50.1951 46.1999 51.1191 49.0049C51.9681 51.5819 53.4351 54.0259 56.4791 53.5399C59.5381 53.0529 61.0991 51.0109 61.0241 47.4579Z" fill="white"/>
<path d="M129.022 43.4857C129.145 43.8607 129.124 44.2727 128.961 44.7207C128.797 45.1697 128.613 45.3517 128.409 45.2677C128.081 45.1427 127.437 44.8407 126.476 44.3607C125.617 45.9657 123.843 48.0247 121.153 50.5357C118.464 53.0477 116.669 54.3027 115.768 54.3027C115.584 54.3027 115.461 54.2297 115.4 54.0837C117.077 52.6047 118.765 51.1247 120.462 49.6447C123.265 47.1427 124.952 45.2567 125.524 43.9857C124.972 43.6307 124.409 43.2777 123.836 42.9227C123.325 42.4647 123.069 41.8277 123.069 41.0147C123.069 40.5567 123.396 39.8787 124.051 38.9827C124.706 38.0867 125.268 37.6387 125.739 37.6387C127.109 37.6387 127.795 38.4727 127.795 40.1397C127.795 40.8077 127.652 41.5157 127.365 42.2657C127.876 42.5387 128.428 42.9447 129.022 43.4857ZM126.445 42.0487C126.506 41.8197 126.537 41.5797 126.537 41.3297C126.537 40.2467 126.209 39.7037 125.555 39.7037C125.043 39.7037 124.757 39.9437 124.696 40.4227C124.635 40.8397 125.218 41.3807 126.445 42.0487Z" fill="white"/>
<path d="M6.14694 127.774C5.60594 127.35 4.83194 127.186 3.86794 127.186H0.407938V127.61C1.40794 127.677 1.52494 127.735 1.52494 128.998V134.559C1.52494 135.735 1.40794 135.851 0.335938 135.947V136.352H4.10194V135.947C2.87694 135.85 2.75994 135.774 2.75994 134.569V132.42L3.76894 132.69C3.91294 132.699 4.19194 132.699 4.39994 132.67C5.71494 132.506 7.03094 131.62 7.03094 129.779C7.02994 128.853 6.68694 128.198 6.14694 127.774ZM3.72294 132.102C3.29994 132.102 2.92994 131.996 2.75894 131.929V128.478C2.75894 128.083 2.81294 127.929 2.90294 127.832C2.99294 127.736 3.27194 127.659 3.64194 127.659C4.70494 127.659 5.62394 128.295 5.62394 129.828C5.62394 131.62 4.56094 132.102 3.72294 132.102Z" fill="white"/>
<path d="M11.5518 130.038C10.9298 130.038 10.3808 130.79 9.93878 131.561H9.91178V129.99C9.22678 130.288 8.59678 130.453 7.92978 130.568V130.886C8.67778 131.002 8.74978 131.059 8.74978 131.956V134.876C8.74978 135.801 8.63278 135.888 7.82178 135.975V136.351H11.0198V135.975C9.97478 135.888 9.91178 135.802 9.91178 134.876V132.361C10.1998 131.609 10.6058 131.195 10.9478 131.195C11.1728 131.195 11.3258 131.282 11.5338 131.484C11.6148 131.561 11.7318 131.59 11.8938 131.522C12.1818 131.377 12.3618 131.088 12.3618 130.761C12.3628 130.414 12.0388 130.038 11.5518 130.038Z" fill="white"/>
<path d="M15.8228 130.038H15.8138C14.5438 130.038 12.7778 131.117 12.7778 133.421C12.7778 134.973 13.8948 136.515 15.8138 136.515C17.1738 136.515 18.7958 135.436 18.7958 133.161C18.7958 131.455 17.5348 130.038 15.8228 130.038ZM15.9578 136.023C14.8768 136.023 14.1558 134.722 14.1558 132.939C14.1558 131.349 14.8768 130.51 15.6518 130.51H15.6698C16.7958 130.51 17.4268 131.802 17.4268 133.488C17.4268 135.464 16.7328 136.023 15.9578 136.023Z" fill="white"/>
<path d="M21.6161 130.202V129.614C21.5891 128.429 21.7241 127.773 21.8771 127.523C22.0211 127.272 22.2191 127.099 22.5621 127.099C22.9941 127.099 23.3911 127.378 23.6611 127.658C23.7871 127.803 23.9041 127.803 24.0481 127.687C24.1741 127.581 24.2641 127.466 24.3181 127.349C24.3991 127.166 24.3901 126.973 24.2461 126.809C24.0211 126.539 23.6421 126.337 23.1651 126.327C22.6151 126.395 22.1381 126.645 21.6691 127.088C20.9301 127.744 20.6961 128.428 20.6061 128.746C20.5161 129.054 20.4621 129.43 20.4621 129.883V130.201H19.8311L19.4531 130.625L19.5161 130.789H20.4621V134.876C20.4621 135.801 20.3541 135.888 19.5071 135.975V136.351H22.7681V135.985C21.7231 135.869 21.6151 135.821 21.6151 134.78V130.79H23.0561C23.2181 130.694 23.2811 130.327 23.2001 130.202H21.6161Z" fill="white"/>
<path d="M28.4897 132.207C28.4897 131.089 27.5797 130.038 26.4357 130.038H26.4267C25.7147 130.038 24.9847 130.443 24.4087 131.117C23.8677 131.744 23.5527 132.592 23.5527 133.527C23.5527 135.098 24.5257 136.515 26.1747 136.515C26.6067 136.515 27.5707 136.265 28.4357 135.098L28.2107 134.789C27.7237 135.271 27.2107 135.493 26.6607 135.493C25.7327 135.493 24.7327 134.722 24.7057 132.9C26.2557 132.842 27.9307 132.698 28.1747 132.659C28.4177 132.602 28.4897 132.477 28.4897 132.207ZM26.9407 132.264C26.1927 132.293 25.4807 132.293 24.7697 132.293C24.9587 131.117 25.5357 130.568 26.1117 130.568H26.1207C26.8237 130.568 27.2557 131.252 27.2557 131.994C27.2557 132.178 27.1747 132.255 26.9407 132.264Z" fill="white"/>
<path d="M31.6441 132.602C31.0401 132.351 30.5361 132.014 30.5361 131.435C30.5361 130.886 30.8781 130.5 31.3651 130.5C32.0231 130.5 32.4911 131.088 32.7521 131.917L33.1121 131.801C33.0851 131.463 32.9231 130.596 32.8061 130.288C32.5361 130.163 32.1751 130.038 31.5991 130.038C30.3381 130.038 29.5271 130.886 29.5271 131.889C29.5271 133.007 30.4551 133.489 31.2301 133.865C31.9151 134.192 32.2661 134.511 32.2661 135.089C32.2661 135.648 31.8341 136.043 31.3471 136.043C30.5541 136.043 29.9511 135.204 29.6981 134.26L29.3291 134.318C29.3471 134.877 29.4731 135.87 29.5631 136.053C29.7881 136.255 30.4191 136.516 31.1131 136.516C32.2211 136.516 33.3561 135.861 33.3561 134.54C33.3551 133.546 32.6621 133.036 31.6441 132.602Z" fill="white"/>
<path d="M36.5357 132.602C35.9317 132.351 35.4277 132.014 35.4277 131.435C35.4277 130.886 35.7697 130.5 36.2567 130.5C36.9147 130.5 37.3827 131.088 37.6437 131.917L38.0037 131.801C37.9767 131.463 37.8147 130.596 37.6977 130.288C37.4277 130.163 37.0667 130.038 36.4907 130.038C35.2297 130.038 34.4187 130.886 34.4187 131.889C34.4187 133.007 35.3467 133.489 36.1217 133.865C36.8067 134.192 37.1577 134.511 37.1577 135.089C37.1577 135.648 36.7257 136.043 36.2387 136.043C35.4457 136.043 34.8427 135.204 34.5897 134.26L34.2207 134.318C34.2387 134.877 34.3647 135.87 34.4547 136.053C34.6797 136.255 35.3107 136.516 36.0047 136.516C37.1127 136.516 38.2477 135.861 38.2477 134.54C38.2467 133.546 37.5537 133.036 36.5357 132.602Z" fill="white"/>
<path d="M40.4549 128.843C40.8689 128.843 41.1759 128.486 41.1759 128.082C41.1759 127.629 40.8699 127.291 40.4729 127.291C40.0769 127.291 39.7339 127.629 39.7339 128.082C39.7339 128.486 40.0759 128.843 40.4549 128.843Z" fill="white"/>
<path d="M41.1298 134.819V130.01C40.5258 130.26 39.8508 130.425 39.1298 130.55V130.887C39.9228 131.032 39.9678 131.099 39.9678 131.986V134.819C39.9678 135.802 39.8688 135.889 39.0308 135.976V136.352H42.0758V135.976C41.2208 135.869 41.1298 135.792 41.1298 134.819Z" fill="white"/>
<path d="M45.797 130.038H45.788C44.518 130.038 42.752 131.117 42.752 133.421C42.752 134.973 43.869 136.515 45.788 136.515C47.148 136.515 48.77 135.436 48.77 133.161C48.77 131.455 47.509 130.038 45.797 130.038ZM45.932 136.023C44.851 136.023 44.13 134.722 44.13 132.939C44.13 131.349 44.851 130.51 45.626 130.51H45.644C46.77 130.51 47.401 131.802 47.401 133.488C47.401 135.464 46.707 136.023 45.932 136.023Z" fill="white"/>
<path d="M55.3559 134.867V132.235C55.3559 130.838 54.6799 130.038 53.6169 130.038C53.2209 130.038 52.8869 130.192 52.5089 130.453C52.1669 130.694 51.8779 130.916 51.6079 131.128V129.991C50.9859 130.261 50.2929 130.444 49.6529 130.55V130.906C50.3559 131.041 50.4459 131.099 50.4459 132.015V134.848C50.4459 135.793 50.3739 135.86 49.4819 135.976V136.352H52.4549V135.976C51.6799 135.889 51.6079 135.831 51.6079 134.868V131.61C52.0129 131.254 52.5089 130.916 53.0129 130.916C53.8329 130.916 54.2019 131.504 54.2019 132.487V134.781C54.2019 135.774 54.1119 135.89 53.3459 135.976V136.352H56.2109V135.976C55.4369 135.869 55.3559 135.831 55.3559 134.867Z" fill="white"/>
<path d="M61.7528 135.551C61.5098 135.551 61.2748 135.339 61.2748 134.713V132.178C61.2748 131.426 61.1308 130.838 60.6348 130.395C60.3288 130.144 59.9407 130.038 59.5177 130.038C58.7697 130.192 57.8598 130.732 57.4728 131.031C57.2118 131.224 57.0408 131.397 57.0408 131.609C57.0408 131.947 57.3918 132.236 57.6538 132.236C57.8608 132.236 58.0048 132.14 58.0858 131.889C58.2028 131.436 58.3198 131.118 58.4908 130.935C58.6258 130.781 58.8238 130.685 59.0588 130.685C59.6988 130.685 60.1308 131.225 60.1308 132.237V132.488C59.8428 132.748 58.9148 133.114 58.0588 133.403C57.3288 133.654 56.9688 134.078 56.9688 134.781C56.9688 135.668 57.6268 136.516 58.6268 136.516C59.0048 136.516 59.6358 136.005 60.1768 135.639C60.2398 135.861 60.3208 136.054 60.5008 136.237C60.6448 136.391 60.9327 136.516 61.1857 136.516L62.3657 135.774L62.2308 135.398C62.0858 135.484 61.9058 135.551 61.7528 135.551ZM60.1308 135.175C59.8968 135.425 59.4638 135.638 59.1488 135.638C58.7528 135.638 58.2298 135.31 58.2298 134.568C58.2298 134.047 58.5178 133.768 59.0408 133.527C59.3198 133.392 59.8608 133.122 60.1308 132.978V135.175Z" fill="white"/>
<path d="M64.7979 134.847V126.327C64.3109 126.491 63.4469 126.732 62.7259 126.819V127.166C63.5549 127.253 63.6449 127.282 63.6449 128.236V134.848C63.6449 135.793 63.5279 135.87 62.6899 135.976V136.352H65.7889V135.976C64.9149 135.889 64.7979 135.802 64.7979 134.847Z" fill="white"/>
<path d="M77.3028 134.454C76.4108 131.977 75.5458 129.471 74.6808 126.974L74.2118 127.099L71.3828 134.453C70.9058 135.706 70.7158 135.802 69.8418 135.947V136.352H72.8148V135.947C71.7968 135.831 71.6888 135.667 71.9768 134.81C72.1478 134.251 72.3278 133.701 72.5538 133.056H75.4458C75.7338 133.866 75.9778 134.569 76.1668 135.128C76.3468 135.696 76.2298 135.822 75.3918 135.947V136.352H78.7978V135.947C77.9248 135.851 77.7358 135.697 77.3028 134.454ZM72.7808 132.42C73.1858 131.283 73.6098 130.078 74.0418 128.911H74.0688L75.2488 132.42H72.7808Z" fill="white"/>
<path d="M82.3937 135.493C81.6727 135.493 80.3577 134.867 80.3577 132.929C80.3577 131.435 81.1147 130.722 81.9437 130.722C82.4217 130.722 82.8807 130.915 83.3127 131.329C83.4297 131.454 83.4927 131.493 83.5737 131.493C83.7447 131.493 84.0417 131.175 84.0417 130.847C84.0417 130.693 84.0057 130.568 83.8257 130.413C83.6097 130.211 83.1677 130.037 82.6187 130.037H82.6007C82.0867 130.037 81.2767 130.259 80.5377 130.837C79.6367 131.55 79.1777 132.504 79.1777 133.574C79.1777 135.068 80.1867 136.513 81.9347 136.513C82.7187 136.513 83.6287 135.887 84.2317 135.048L84.0067 134.73C83.4027 135.33 82.9517 135.493 82.3937 135.493Z" fill="white"/>
<path d="M89.7449 135.551C89.5019 135.551 89.2669 135.339 89.2669 134.713V132.178C89.2669 131.426 89.1229 130.838 88.6269 130.395C88.3209 130.144 87.9329 130.038 87.5099 130.038C86.7619 130.192 85.8519 130.732 85.4649 131.031C85.2039 131.224 85.0329 131.397 85.0329 131.609C85.0329 131.947 85.3839 132.236 85.6459 132.236C85.8529 132.236 85.9969 132.14 86.0779 131.889C86.1949 131.436 86.3119 131.118 86.4829 130.935C86.6179 130.781 86.8159 130.685 87.0509 130.685C87.6909 130.685 88.1229 131.225 88.1229 132.237V132.488C87.8349 132.748 86.9069 133.114 86.0509 133.403C85.3209 133.654 84.9609 134.078 84.9609 134.781C84.9609 135.668 85.6189 136.516 86.6189 136.516C86.9969 136.516 87.6279 136.005 88.1689 135.639C88.2319 135.861 88.3129 136.054 88.4929 136.237C88.6369 136.391 88.9249 136.516 89.1779 136.516L90.3579 135.774L90.2229 135.398C90.0789 135.484 89.8989 135.551 89.7449 135.551ZM88.1239 135.175C87.8899 135.425 87.4569 135.638 87.1419 135.638C86.7459 135.638 86.2229 135.31 86.2229 134.568C86.2229 134.047 86.5109 133.768 87.0339 133.527C87.3129 133.392 87.8539 133.122 88.1239 132.978V135.175Z" fill="white"/>
<path d="M96.448 134.684V126.327C95.916 126.51 94.997 126.722 94.25 126.819V127.185C95.196 127.253 95.286 127.291 95.286 128.207V130.193C94.962 130.077 94.61 130.039 94.421 130.039C92.556 130.039 90.916 131.562 90.916 133.518C90.916 135.494 92.349 136.516 93.466 136.516C93.61 136.516 93.962 136.439 94.493 136.111L95.286 135.61V136.516C96.133 136.227 97.178 136.044 97.466 135.986V135.62L97.088 135.581C96.547 135.522 96.448 135.455 96.448 134.684ZM95.286 135.146C94.962 135.377 94.511 135.589 94.07 135.589C93.241 135.589 92.241 134.818 92.241 133.131C92.241 131.087 93.358 130.577 93.926 130.577C94.44 130.577 94.962 130.818 95.286 131.309V135.146Z" fill="white"/>
<path d="M103.025 132.207C103.025 131.089 102.115 130.038 100.971 130.038H100.962C100.25 130.038 99.5209 130.443 98.9439 131.117C98.4029 131.744 98.0879 132.592 98.0879 133.527C98.0879 135.098 99.0609 136.515 100.709 136.515C101.141 136.515 102.106 136.265 102.971 135.098L102.746 134.789C102.259 135.271 101.746 135.493 101.196 135.493C100.268 135.493 99.2679 134.722 99.2409 132.9C100.79 132.842 102.466 132.698 102.71 132.659C102.953 132.602 103.025 132.477 103.025 132.207ZM101.475 132.264C100.727 132.293 100.016 132.293 99.3039 132.293C99.4929 131.117 100.07 130.568 100.646 130.568H100.655C101.357 130.568 101.79 131.252 101.79 131.994C101.791 132.178 101.71 132.255 101.475 132.264Z" fill="white"/>
<path d="M113.296 134.896V132.236C113.296 130.819 112.611 130.039 111.548 130.039C111.17 130.039 110.827 130.203 110.539 130.396C110.215 130.627 109.836 130.887 109.44 131.196C109.161 130.473 108.584 130.039 107.944 130.039C107.52 130.039 107.196 130.193 106.836 130.425C106.431 130.685 106.142 130.945 105.854 131.148V129.992C105.223 130.271 104.476 130.455 103.899 130.551V130.907C104.665 131.032 104.709 131.119 104.709 132.016V134.878C104.709 135.803 104.583 135.89 103.718 135.977V136.353H106.601V135.977C105.988 135.89 105.871 135.804 105.871 134.898V131.611C106.277 131.274 106.772 130.917 107.276 130.917C108.042 130.917 108.411 131.457 108.411 132.517V134.898C108.411 135.823 108.294 135.891 107.492 135.977V136.353H110.438V135.977C109.708 135.89 109.582 135.804 109.582 134.917V132.209C109.582 131.959 109.564 131.794 109.546 131.621C110.051 131.187 110.537 130.917 110.969 130.917C111.744 130.917 112.122 131.486 112.122 132.546V134.82C112.122 135.822 111.969 135.89 111.221 135.977V136.353H114.158V135.977C113.386 135.869 113.296 135.831 113.296 134.896Z" fill="white"/>
<path d="M118.215 130.578C118.963 130.694 119.071 130.857 118.9 131.378C118.639 132.226 118.062 133.894 117.702 134.78L116.495 131.33C116.324 130.819 116.405 130.694 117.026 130.578L117.008 130.202H114.179V130.578C114.9 130.694 115.044 130.876 115.332 131.609C115.702 132.534 116.323 134.289 116.891 135.956C116.972 136.188 116.999 136.38 116.918 136.592C116.864 136.756 116.756 137.035 116.522 137.498C116.198 138.134 115.937 138.452 115.477 138.741C115.252 138.905 115.135 139.03 115.135 139.261C115.135 139.637 115.549 139.984 115.937 139.984C116.117 139.984 116.289 139.917 116.351 139.647C116.576 138.847 116.865 138.047 117.774 135.801C118.702 133.516 119.135 132.331 119.468 131.618C119.828 130.809 119.945 130.693 120.657 130.577V130.201H118.215V130.578Z" fill="white"/>
<path d="M126.494 130.202V129.614C126.467 128.429 126.602 127.773 126.755 127.523C126.899 127.272 127.098 127.099 127.44 127.099C127.872 127.099 128.269 127.378 128.54 127.658C128.666 127.803 128.783 127.803 128.927 127.687C129.053 127.581 129.143 127.466 129.197 127.349C129.278 127.166 129.269 126.973 129.125 126.809C128.9 126.539 128.521 126.337 128.044 126.327C127.495 126.395 127.017 126.645 126.548 127.088C125.809 127.744 125.575 128.428 125.485 128.746C125.395 129.054 125.341 129.43 125.341 129.883V130.201H124.71L124.332 130.625L124.395 130.789H125.341V134.876C125.341 135.801 125.233 135.888 124.386 135.975V136.351H127.647V135.985C126.602 135.869 126.494 135.821 126.494 134.78V130.79H127.936C128.098 130.694 128.161 130.327 128.08 130.202H126.494Z" fill="white"/>
<path d="M131.459 130.038H131.45C130.18 130.038 128.414 131.117 128.414 133.421C128.414 134.973 129.531 136.515 131.45 136.515C132.811 136.515 134.432 135.436 134.432 133.161C134.432 131.455 133.171 130.038 131.459 130.038ZM131.594 136.023C130.513 136.023 129.792 134.722 129.792 132.939C129.792 131.349 130.513 130.51 131.288 130.51H131.306C132.432 130.51 133.063 131.802 133.063 133.488C133.063 135.464 132.369 136.023 131.594 136.023Z" fill="white"/>
<path d="M138.91 130.038C138.289 130.038 137.739 130.79 137.297 131.561H137.27V129.99C136.585 130.288 135.955 130.453 135.288 130.568V130.886C136.036 131.002 136.108 131.059 136.108 131.956V134.876C136.108 135.801 135.991 135.888 135.18 135.975V136.351H138.378V135.975C137.333 135.888 137.27 135.802 137.27 134.876V132.361C137.558 131.609 137.964 131.195 138.306 131.195C138.531 131.195 138.685 131.282 138.892 131.484C138.973 131.561 139.09 131.59 139.252 131.522C139.54 131.377 139.72 131.088 139.72 130.761C139.721 130.414 139.396 130.038 138.91 130.038Z" fill="white"/>
<path d="M151.577 129.411C151.514 128.563 151.442 127.474 151.442 126.828H151.154C150.947 127.098 150.821 127.185 150.452 127.185H144.992C144.596 127.185 144.425 127.185 144.226 126.828H143.938C143.911 127.609 143.848 128.544 143.785 129.46H144.19C144.361 128.795 144.478 128.38 144.65 128.14C144.83 127.841 145.109 127.706 146.281 127.706H147.065V134.578C147.065 135.706 146.948 135.86 145.713 135.947V136.352H149.704V135.947C148.425 135.86 148.307 135.696 148.307 134.578V127.706H149.226C150.253 127.706 150.487 127.812 150.712 128.14C150.883 128.381 151.028 128.757 151.172 129.46L151.577 129.411Z" fill="white"/>
<path d="M155.973 132.207C155.973 131.089 155.063 130.038 153.919 130.038H153.91C153.198 130.038 152.469 130.443 151.892 131.117C151.351 131.744 151.036 132.592 151.036 133.527C151.036 135.098 152.009 136.515 153.658 136.515C154.09 136.515 155.054 136.265 155.919 135.098L155.694 134.789C155.208 135.271 154.694 135.493 154.144 135.493C153.216 135.493 152.216 134.722 152.189 132.9C153.739 132.842 155.414 132.698 155.657 132.659C155.901 132.602 155.973 132.477 155.973 132.207ZM154.424 132.264C153.676 132.293 152.964 132.293 152.253 132.293C152.442 131.117 153.019 130.568 153.595 130.568H153.604C154.307 130.568 154.74 131.252 154.74 131.994C154.739 132.178 154.658 132.255 154.424 132.264Z" fill="white"/>
<path d="M161.65 135.551C161.407 135.551 161.173 135.339 161.173 134.713V132.178C161.173 131.426 161.029 130.838 160.533 130.395C160.227 130.144 159.839 130.038 159.416 130.038C158.668 130.192 157.758 130.732 157.371 131.031C157.11 131.224 156.939 131.397 156.939 131.609C156.939 131.947 157.291 132.236 157.552 132.236C157.759 132.236 157.904 132.14 157.984 131.889C158.101 131.436 158.219 131.118 158.39 130.935C158.525 130.781 158.724 130.685 158.957 130.685C159.597 130.685 160.029 131.225 160.029 132.237V132.488C159.741 132.748 158.813 133.114 157.957 133.403C157.227 133.654 156.867 134.078 156.867 134.781C156.867 135.668 157.525 136.516 158.525 136.516C158.904 136.516 159.534 136.005 160.075 135.639C160.138 135.861 160.219 136.054 160.399 136.237C160.543 136.391 160.831 136.516 161.084 136.516L162.264 135.774L162.129 135.398C161.983 135.484 161.803 135.551 161.65 135.551ZM160.028 135.175C159.794 135.425 159.361 135.638 159.046 135.638C158.65 135.638 158.127 135.31 158.127 134.568C158.127 134.047 158.415 133.768 158.938 133.527C159.217 133.392 159.758 133.122 160.028 132.978V135.175Z" fill="white"/>
<path d="M166.028 135.493C165.307 135.493 163.991 134.867 163.991 132.929C163.991 131.435 164.748 130.722 165.577 130.722C166.055 130.722 166.514 130.915 166.946 131.329C167.063 131.454 167.126 131.493 167.207 131.493C167.378 131.493 167.675 131.175 167.675 130.847C167.675 130.693 167.639 130.568 167.459 130.413C167.243 130.211 166.801 130.037 166.252 130.037H166.234C165.72 130.037 164.91 130.259 164.171 130.837C163.27 131.55 162.811 132.504 162.811 133.574C162.811 135.068 163.82 136.513 165.568 136.513C166.352 136.513 167.262 135.887 167.866 135.048L167.641 134.73C167.037 135.33 166.586 135.493 166.028 135.493Z" fill="white"/>
<path d="M174.055 134.876V132.476C174.055 130.751 173.28 130.037 172.181 130.037C171.469 130.037 170.766 130.538 170.262 131.059V126.327C169.712 126.51 168.847 126.722 168.217 126.819V127.156C169.073 127.243 169.109 127.291 169.109 128.178V134.877C169.109 135.802 168.992 135.889 168.19 135.976V136.352H171.109V135.976C170.343 135.889 170.262 135.774 170.262 134.877V131.561C170.632 131.127 171.127 130.877 171.613 130.877C172.442 130.877 172.892 131.427 172.892 132.593V134.877C172.892 135.793 172.784 135.889 172.027 135.976V136.352H174.919V135.976C174.154 135.889 174.055 135.821 174.055 134.876Z" fill="white"/>
<path d="M180.587 132.207C180.587 131.089 179.677 130.038 178.533 130.038H178.524C177.812 130.038 177.082 130.443 176.506 131.117C175.965 131.744 175.65 132.592 175.65 133.527C175.65 135.098 176.623 136.515 178.272 136.515C178.704 136.515 179.668 136.265 180.533 135.098L180.308 134.789C179.822 135.271 179.308 135.493 178.758 135.493C177.83 135.493 176.83 134.722 176.803 132.9C178.353 132.842 180.028 132.698 180.271 132.659C180.515 132.602 180.587 132.477 180.587 132.207ZM179.037 132.264C178.289 132.293 177.577 132.293 176.866 132.293C177.055 131.117 177.632 130.568 178.208 130.568H178.217C178.92 130.568 179.353 131.252 179.353 131.994C179.353 132.178 179.272 132.255 179.037 132.264Z" fill="white"/>
<path d="M185.074 130.038C184.453 130.038 183.903 130.79 183.461 131.561H183.434V129.99C182.749 130.288 182.119 130.453 181.452 130.568V130.886C182.2 131.002 182.272 131.059 182.272 131.956V134.876C182.272 135.801 182.155 135.888 181.344 135.975V136.351H184.542V135.975C183.497 135.888 183.434 135.802 183.434 134.876V132.361C183.722 131.609 184.128 131.195 184.47 131.195C184.695 131.195 184.849 131.282 185.056 131.484C185.137 131.561 185.254 131.59 185.416 131.522C185.704 131.377 185.884 131.088 185.884 130.761C185.885 130.414 185.561 130.038 185.074 130.038Z" fill="white"/>
<path d="M188.786 132.602C188.182 132.351 187.678 132.014 187.678 131.435C187.678 130.886 188.021 130.5 188.507 130.5C189.165 130.5 189.633 131.088 189.895 131.917L190.255 131.801C190.228 131.463 190.066 130.596 189.948 130.288C189.678 130.163 189.318 130.038 188.741 130.038C187.48 130.038 186.668 130.886 186.668 131.889C186.668 133.007 187.596 133.489 188.371 133.865C189.056 134.192 189.407 134.511 189.407 135.089C189.407 135.648 188.975 136.043 188.488 136.043C187.695 136.043 187.091 135.204 186.839 134.26L186.47 134.318C186.488 134.877 186.614 135.87 186.704 136.053C186.929 136.255 187.56 136.516 188.254 136.516C189.362 136.516 190.498 135.861 190.498 134.54C190.498 133.546 189.804 133.036 188.786 132.602Z" fill="white"/>
<path d="M76.6741 121.562C76.3871 121.995 76.0131 122.492 75.5531 123.054C74.9581 122.623 74.3441 122.235 73.7091 121.89C73.4531 122.2 73.1001 122.658 72.6491 123.261C72.2091 122.994 71.5951 122.614 70.8071 122.123C71.2251 121.589 71.5671 121.095 71.8321 120.639L73.7681 121.788L74.8871 120.522C75.6571 120.993 76.2531 121.34 76.6741 121.562Z" fill="white"/>
<path d="M80.5593 115.95C80.1193 115.673 79.5053 115.281 78.7173 114.773C79.1353 114.221 79.4773 113.71 79.7423 113.238L81.6783 114.426C81.6783 114.426 81.0093 115.325 80.5593 115.95Z" fill="white"/>
<path d="M65.4775 108.233C64.9855 107.941 64.4195 107.56 63.7795 107.09C64.2705 106.484 64.7115 105.858 65.1045 105.211C64.7515 104.95 64.2315 104.59 63.5435 104.131C63.8475 103.683 64.2795 103.057 64.8385 102.254C65.4455 102.68 66.0085 103.028 66.5275 103.298L65.2205 105.271L66.6605 106.411C66.1255 107.197 65.7305 107.804 65.4775 108.233Z" fill="white"/>
<path d="M93.9782 101.835C93.9242 102.368 93.5882 102.654 93.2242 102.9C92.5612 103.348 91.8692 103.754 91.2112 104.209C89.7512 105.22 88.1572 106.034 86.7722 107.157C86.5462 107.34 86.3372 107.551 86.0552 107.679C86.2202 106.864 86.5292 106.4 87.3782 105.872C89.5072 104.548 91.6512 103.247 93.7892 101.937C93.8352 101.908 93.8842 101.885 93.9782 101.835Z" fill="white"/>
<path d="M101.209 120.677C101.162 120.956 100.964 121.095 100.752 121.211C100.366 121.423 99.9642 121.611 99.5812 121.827C98.7292 122.307 97.8092 122.676 96.9962 123.218C96.8632 123.306 96.7391 123.41 96.5771 123.467C96.6961 123.043 96.8842 122.809 97.3772 122.562C98.6142 121.942 99.8592 121.335 101.1 120.723C101.127 120.711 101.155 120.7 101.209 120.677Z" fill="white"/>
<path d="M86.0592 119.864C86.0122 120.143 85.8142 120.282 85.6022 120.398C85.2162 120.61 84.8142 120.798 84.4312 121.014C83.5792 121.494 82.6592 121.863 81.8462 122.405C81.7132 122.493 81.5892 122.597 81.4272 122.654C81.5462 122.23 81.7342 121.996 82.2272 121.749C83.4642 121.129 84.7092 120.522 85.9502 119.91C85.9762 119.897 86.0052 119.887 86.0592 119.864Z" fill="white"/>
<path d="M84.4431 111.309C85.0031 110.885 85.2221 111.312 85.3811 111.647C85.5961 112.1 85.7111 112.672 85.9301 113.126C85.9631 113.118 85.9951 113.109 86.0281 113.102C86.1211 113.022 86.1491 112.892 86.1981 112.772C86.4551 112.144 86.3411 111.531 86.4551 110.876C86.5621 110.26 87.0441 110.045 87.4231 110.303C87.5951 110.42 87.8311 110.753 87.9691 110.397C88.0621 110.156 88.1441 109.728 87.7861 109.465C87.2801 109.094 86.6211 109.437 86.3741 110.307C86.2511 110.739 86.2191 111.199 86.1451 111.646C86.1251 111.769 86.0851 111.893 85.9681 111.923C85.8481 111.954 85.7021 111.721 85.6671 111.617C85.2501 110.884 85.0081 110.621 84.8151 109.939C84.7461 109.694 84.6131 109.424 84.3351 109.485C84.0671 109.544 83.9951 109.825 83.9951 110.044C83.9941 110.422 84.1491 110.817 84.2801 111.156C84.3081 111.225 84.3451 111.383 84.4431 111.309Z" fill="white"/>
<path d="M86.5201 104.155C85.5671 104.311 85.2631 104.003 85.3331 103.07C85.3571 102.756 85.6061 101.849 85.7371 101.365C85.3821 101.897 85.1141 103.019 85.1141 103.083C85.0271 103.461 84.9831 103.865 85.1011 104.241C85.2091 104.586 85.4061 104.922 85.8421 104.894C86.2811 104.866 86.5131 104.619 86.5201 104.155Z" fill="white"/>
<path d="M82.6784 101.835C82.6244 102.368 82.2884 102.654 81.9244 102.9C81.2614 103.348 80.5694 103.754 79.9114 104.209C78.4514 105.22 76.8574 106.034 75.4724 107.157C75.2464 107.34 75.0374 107.551 74.7554 107.679C74.9204 106.864 75.2294 106.4 76.0784 105.872C78.2074 104.548 80.3514 103.247 82.4894 101.937C82.5354 101.908 82.5844 101.885 82.6784 101.835Z" fill="white"/>
<path d="M73.3313 105.315C73.1033 104.856 72.9893 104.269 72.7703 103.807C72.6113 103.472 72.3923 103.045 71.8323 103.469C71.7343 103.543 71.6973 103.385 71.6703 103.316C71.5393 102.977 71.3843 102.582 71.3853 102.204C71.3853 101.985 71.4583 101.704 71.7253 101.645C72.0033 101.584 72.1363 101.854 72.2053 102.099C72.3983 102.781 72.6403 103.043 73.0573 103.777C73.0923 103.881 73.2383 104.114 73.3583 104.083C73.4753 104.053 73.5153 103.928 73.5353 103.806C73.6093 103.359 73.6413 102.899 73.7643 102.467C74.0113 101.597 74.6703 101.254 75.1763 101.625C75.5343 101.888 75.4523 102.316 75.3593 102.557C75.2213 102.913 74.9853 102.58 74.8133 102.463C74.4343 102.205 73.9523 102.42 73.8453 103.036C73.7313 103.692 73.8453 104.304 73.5883 104.932C73.5253 105.083 73.5023 105.254 73.3313 105.315Z" fill="white"/>
<path d="M70.9981 109.657C71.0731 109.827 71.0601 110.013 70.9601 110.216C70.8601 110.419 70.7471 110.502 70.6221 110.464C70.4211 110.407 70.0271 110.271 69.4391 110.053C68.9131 110.78 67.8281 111.712 66.1821 112.85C64.5361 113.988 63.4381 114.556 62.8871 114.556C62.7741 114.556 62.6991 114.523 62.6621 114.457C63.6881 113.787 64.7211 113.117 65.7601 112.446C67.4751 111.313 68.5071 110.459 68.8581 109.883C68.5201 109.722 68.1761 109.562 67.8251 109.402C67.5131 109.194 67.3561 108.906 67.3561 108.538C67.3561 108.33 67.5561 108.024 67.9571 107.618C68.3581 107.212 68.7011 107.009 68.9901 107.009C69.8281 107.009 70.2481 107.387 70.2481 108.142C70.2481 108.445 70.1601 108.765 69.9851 109.105C70.2971 109.228 70.6341 109.412 70.9981 109.657ZM69.4211 109.006C69.4591 108.902 69.4771 108.794 69.4771 108.68C69.4771 108.189 69.2761 107.944 68.8761 107.944C68.5631 107.944 68.3881 108.053 68.3501 108.27C68.3131 108.458 68.6701 108.703 69.4211 109.006Z" fill="white"/>
<path d="M63.3933 110.239C61.7453 110.468 61.2113 109.954 61.3083 108.426C61.3413 107.911 61.7493 106.432 61.9623 105.641C61.3613 106.504 60.9273 108.336 60.9293 108.441C60.7883 109.058 60.7233 109.72 60.9373 110.34C61.1333 110.91 61.4833 111.465 62.2383 111.432C62.9973 111.399 63.3933 110.999 63.3933 110.239Z" fill="white"/>
<path d="M96.5521 107.778C95.4241 107.963 95.0651 107.598 95.1481 106.494C95.1761 106.122 95.4711 105.05 95.6261 104.477C95.2061 105.106 94.8891 106.434 94.8891 106.509C94.7861 106.956 94.7341 107.434 94.8731 107.879C95.0011 108.288 95.2331 108.684 95.7491 108.652C96.2691 108.619 96.5441 108.326 96.5521 107.778Z" fill="white"/>
<path d="M79.9871 109.446C78.8591 109.631 78.5001 109.266 78.5831 108.162C78.6111 107.79 78.9061 106.718 79.0611 106.145C78.6411 106.774 78.3241 108.102 78.3241 108.177C78.2211 108.624 78.1691 109.102 78.3081 109.547C78.4361 109.956 78.6681 110.352 79.1841 110.32C79.7031 110.287 79.9781 109.994 79.9871 109.446Z" fill="white"/>
<path d="M74.3793 109.066C74.3783 109.349 74.2053 109.519 74.0143 109.669C73.6673 109.942 73.3013 110.195 72.9583 110.473C72.1953 111.088 71.3473 111.607 70.6323 112.277C70.5153 112.386 70.4103 112.509 70.2593 112.593C70.3083 112.155 70.4553 111.893 70.9023 111.567C72.0233 110.749 73.1523 109.942 74.2793 109.131C74.3033 109.113 74.3293 109.098 74.3793 109.066Z" fill="white"/>
<path d="M73.3105 112.187C73.4565 112.254 73.6365 112.485 73.8505 112.88C73.9235 113.023 73.9705 113.162 73.9895 113.295C74.0065 113.411 74.0095 113.518 73.9985 113.615C73.9765 113.862 73.8265 114.007 73.5475 114.05C73.3575 114.079 73.1545 114.063 72.9375 114.001C72.9155 114.248 72.7495 114.396 72.4395 114.443C72.2495 114.472 72.0475 114.423 71.8345 114.296C71.6215 114.168 71.4605 114.003 71.3525 113.8C71.2005 113.52 71.1105 113.284 71.0825 113.093C71.0635 112.965 71.0815 112.87 71.1375 112.808C71.1695 112.809 71.2375 112.894 71.3405 113.062C71.6035 113.521 71.8805 113.728 72.1715 113.683C72.3745 113.652 72.4555 113.502 72.4165 113.235C72.4125 113.206 72.3945 113.142 72.3635 113.043C72.3325 112.944 72.3125 112.862 72.3025 112.798C72.2865 112.693 72.3035 112.632 72.3525 112.612C72.3745 112.627 72.3945 112.643 72.4135 112.661C72.4325 112.679 72.4495 112.699 72.4655 112.72L72.5245 112.854L72.6085 113.028C72.7355 113.276 72.9235 113.381 73.1705 113.343C73.4365 113.302 73.5565 113.194 73.5305 113.02C73.5225 112.968 73.5015 112.912 73.4665 112.852L73.3495 112.656C73.3395 112.634 73.3245 112.597 73.3045 112.547C73.2835 112.497 73.2705 112.451 73.2645 112.41C73.2525 112.315 73.2665 112.242 73.3105 112.187Z" fill="white"/>
<path d="M107.218 116.456C107.27 116.893 107.302 117.317 107.312 117.729C107.348 119.182 107.172 120.234 106.784 120.884C106.635 121.133 106.524 121.259 106.451 121.261C106.337 121.264 106.314 120.984 106.383 120.422C106.469 119.71 106.456 118.97 106.343 118.202C105.907 115.708 105.294 111.956 104.504 106.947C104.398 106.03 103.804 102.628 103.545 102.214C103.48 102.119 103.632 101.559 104.001 100.533C104.02 100.471 104.05 100.44 104.092 100.439C104.195 100.436 104.345 100.621 104.541 100.992C104.877 101.561 106.347 105.349 106.353 105.568C106.355 105.638 105.504 104.834 105.208 104.587C105.193 104.833 105.426 105.626 105.947 108.591C106.574 112.122 106.998 114.745 107.218 116.456Z" fill="white"/>
<path d="M105.093 117.349C104.656 116.46 103.512 116.812 102.639 117.069C102.591 117.083 102.543 117.095 102.496 117.112C102.093 117.25 101.802 117.274 101.573 117.141C101.557 116.916 101.536 116.689 101.508 116.457C101.289 114.746 100.865 112.123 100.236 108.591C99.7153 105.626 99.4833 104.832 99.4973 104.587C99.7933 104.834 100.644 105.638 100.642 105.568C100.636 105.349 99.1663 101.562 98.8303 100.992C98.6343 100.62 98.4843 100.436 98.3813 100.439C98.3393 100.44 98.3093 100.472 98.2903 100.533C97.9213 101.559 97.7693 102.119 97.8343 102.214C98.0933 102.628 98.6873 106.029 98.7933 106.947C99.5213 111.563 100.098 115.108 100.526 117.588C100.527 117.877 100.258 118.037 100 118.195C98.5853 119.064 92.7963 120.547 93.3203 116.383C93.8103 116.366 94.6333 116.427 95.2723 116.391C96.6963 116.313 97.2823 116.67 97.6643 115.088C97.8603 114.277 98.0793 113.522 97.7803 113.226C97.6393 113.087 96.8713 112.505 96.3183 112.206C94.7973 111.384 93.2293 110.539 92.2983 108.901C92.1563 108.652 91.7883 108.542 91.4873 108.739C91.1513 108.958 91.1963 109.46 91.3513 109.697C92.0583 110.783 91.4833 111.461 90.7603 112.187C89.8133 113.137 89.3843 114.215 90.2523 115.483C90.4163 115.723 90.5343 115.968 90.3583 116.163C90.1063 116.302 89.8493 116.43 89.5803 116.534C89.5223 116.555 89.4643 116.578 89.4053 116.597C89.2823 116.638 89.1583 116.676 89.0273 116.703C87.7783 116.959 87.1143 116.841 87.0353 115.043C85.7173 115.819 84.5413 116.552 83.3303 117.211C79.5643 119.26 75.8013 117.464 74.8223 115.234C74.3593 115.827 73.9343 116.424 73.4573 116.974C72.3153 118.29 70.9173 118.217 69.9003 116.787C69.6443 116.428 69.4683 116.008 69.2703 115.609C68.5323 114.124 67.9733 113.935 66.8523 115.18C65.9443 116.189 65.8943 117.675 65.4183 118.871C65.2963 119.177 65.1693 119.465 65.0253 119.723C64.1003 121.511 62.7593 121.102 61.9733 119.666C61.8473 119.436 61.5383 118.73 61.4073 117.43C61.3673 115.843 61.2383 115.623 61.0513 115.711C60.3413 115.997 61.4743 119.479 61.5043 119.524C61.7993 120.195 61.9983 120.55 62.4863 121.097C63.1913 121.888 64.9143 122.119 65.6043 120.597C66.0573 119.599 66.4523 118.565 66.9023 117.56C67.1703 116.961 67.5053 116.273 68.2223 116.267C68.8003 116.262 69.0203 117.225 69.1383 117.497C70.2323 120.022 72.6293 120.397 74.1703 117.851C74.6003 117.141 74.9293 117.378 75.3163 117.775C79.9853 122.571 85.3883 117.834 86.5913 117.049C86.5913 117.049 87.2843 119.049 88.8983 118.598C89.5833 118.407 90.3063 117.716 90.8483 117.252C91.2643 116.896 91.6473 116.659 92.0323 116.577C92.0823 116.592 92.1323 116.611 92.1813 116.622C91.1843 121.674 96.5613 121.452 98.4273 120.501C99.9223 119.739 101.277 119.066 102.539 120.676C103.056 121.335 104.046 121.879 104.82 120.8C105.59 119.733 105.605 118.39 105.093 117.349ZM93.9713 113.138C94.9583 112.857 96.7833 113.588 97.0743 114.403C97.1783 114.695 97.1093 114.757 96.5693 114.766C95.4763 114.783 95.0743 114.792 93.5693 114.71C93.6663 114.188 93.8493 113.711 93.9713 113.138ZM92.7633 114.509C91.8773 115.045 90.2823 114.322 90.5503 113.602C90.7883 112.963 91.7093 111.566 92.8923 112.195C93.1473 112.33 93.3383 112.535 93.4793 112.781C93.2343 113.498 93.0043 113.948 92.7633 114.509ZM104.649 119.535C103.777 119.808 103.075 119.361 102.371 118.876C103.186 118.143 103.948 118.284 104.662 118.898C104.816 119.031 104.938 119.444 104.649 119.535Z" fill="white"/>
<path d="M169.376 114.688C167.433 113.68 165.366 113.33 163.185 113.618C159.824 114.063 156.45 114.167 153.076 113.769C152.674 113.722 152.05 113.83 151.942 113.291C151.855 112.853 152.288 112.467 152.613 112.186C154.339 110.696 156.237 109.593 158.582 109.49C158.962 109.473 159.452 109.56 159.452 109.56C159.743 109.181 160.306 108.432 160 107.925C159.639 107.325 158.884 107.29 158.224 107.501C155.335 108.425 153.089 110.209 151.497 112.83C150.623 114.268 151.17 115.585 152.799 115.549C155.975 115.478 159.147 115.826 162.333 115.427C164.715 115.129 167.226 114.749 169.283 116.654C169.533 116.885 169.982 117.445 169.813 117.492C169.252 117.65 160.42 118.575 156.17 118.894C151.458 119.248 149.602 118.852 148.581 116.941C148.233 116.289 147.367 112.326 147.773 108.869C147.918 106.102 148.422 103.628 146.812 101.076C146.437 103.041 146.823 112.806 147.302 115.707C147.347 115.982 147.394 116.195 147.44 116.335C147.44 116.335 147.84 119.92 151.793 120.4C154.147 120.686 155.78 120.519 158.113 120.262C161.465 119.893 165.622 119.381 168.987 119.226C168.987 119.226 170.304 118.268 170.732 117.219C171.215 116.036 170.355 115.196 169.376 114.688Z" fill="white"/>
<path d="M176.856 106.078C176.896 106.071 176.916 106.095 176.916 106.15C176.916 106.436 176.822 106.671 176.635 106.856C176.488 106.999 176.13 107.221 175.561 107.521C174.945 107.842 174.032 108.585 173.617 108.94C173.363 109.158 173.236 109.165 173.236 108.96C173.236 108.892 173.273 108.803 173.347 108.694C173.501 108.462 173.584 108.339 173.598 108.326C173.718 108.183 174.314 107.634 174.589 107.49C174.415 107.483 174.236 107.395 174.052 107.224C173.868 107.054 173.776 106.89 173.776 106.733C173.776 106.433 173.985 106.046 174.403 105.572C174.821 105.098 175.181 104.861 175.482 104.861C175.763 104.861 175.903 105.045 175.903 105.413C175.803 105.904 175.686 106.139 175.552 106.119C175.485 106.065 175.408 105.959 175.321 105.802C175.267 105.7 175.184 105.648 175.07 105.648C174.843 105.648 174.595 105.846 174.327 106.241C174.715 106.636 175.06 106.834 175.361 106.834C175.548 106.834 176.046 106.582 176.856 106.078Z" fill="white"/>
<path d="M145.921 112.621C146.076 113.577 145.959 114.415 145.57 115.136C145.366 115.508 144.897 116.006 144.163 116.631C143.602 117.104 143.047 117.576 142.496 118.047C140.792 119.674 139.664 120.718 139.112 121.18C137.87 122.197 136.826 122.777 135.981 122.919C135.349 123.025 134.797 122.801 134.322 122.247C133.875 121.729 133.581 121.032 133.439 120.155C133.373 119.747 133.375 119.051 133.447 118.066C133.53 116.814 133.725 115.881 134.032 115.266C134.095 115.246 134.135 115.29 134.153 115.399C134.166 115.479 134.129 115.996 134.042 116.953C133.955 117.909 133.961 118.691 134.059 119.298C134.138 119.786 134.34 120.184 134.665 120.493C134.989 120.802 135.35 120.922 135.746 120.856C136.751 120.687 138.419 119.583 140.749 117.543C141.292 117.094 142.471 116.061 144.287 114.446C145.044 113.756 145.364 113.324 145.248 113.149C144.924 112.641 144.431 112.279 143.769 112.063C142.578 111.701 141.382 111.339 140.18 110.979C139.32 110.694 138.347 110.147 137.259 109.337C136.359 108.67 135.456 108.285 135.46 107.906C135.464 107.527 135.417 107.1 135.318 106.625C135.241 106.219 135.229 106.011 135.283 106.002C135.315 105.997 135.514 106.106 135.881 106.331C136.088 106.46 136.661 106.635 137.598 106.855C138.431 107.042 138.855 107.186 138.872 107.285C138.882 107.345 138.776 107.404 138.554 107.461C138.332 107.519 137.987 107.623 137.517 107.774C138.376 108.325 139.621 108.817 141.251 109.248C142.997 109.711 143.978 109.996 144.193 110.103C145.151 110.586 145.727 111.425 145.921 112.621Z" fill="white"/>
<path d="M129.352 120.035C129.065 120.468 128.691 120.965 128.231 121.527C127.636 121.096 127.022 120.708 126.387 120.363C126.131 120.673 125.778 121.131 125.327 121.734C124.887 121.467 124.273 121.087 123.485 120.596C123.903 120.062 124.245 119.568 124.51 119.112L126.446 120.261L127.565 118.995C128.335 119.465 128.931 119.812 129.352 120.035Z" fill="white"/>
<path d="M119.44 120.777C119.153 121.21 118.779 121.707 118.319 122.269C117.724 121.838 117.11 121.45 116.475 121.105C116.219 121.415 115.866 121.873 115.415 122.476C114.975 122.209 114.361 121.829 113.573 121.338C113.991 120.804 114.333 120.31 114.598 119.854L116.534 121.003L117.653 119.737C118.423 120.208 119.019 120.555 119.44 120.777Z" fill="white"/>
<path d="M117.407 101.622C117.12 102.06 116.746 102.564 116.286 103.133C115.691 102.696 115.077 102.303 114.442 101.954C114.186 102.268 113.833 102.731 113.382 103.342C112.942 103.071 112.328 102.687 111.54 102.189C111.958 101.649 112.3 101.148 112.565 100.687L114.501 101.85L115.62 100.569C116.39 101.046 116.986 101.397 117.407 101.622Z" fill="white"/>
<path d="M177.189 100.615C177.135 101.148 176.799 101.434 176.435 101.68C175.772 102.128 175.08 102.533 174.422 102.989C172.962 104 171.368 104.814 169.983 105.937C169.757 106.12 169.548 106.331 169.266 106.459C169.431 105.644 169.74 105.18 170.589 104.652C172.718 103.328 174.862 102.027 177 100.717C177.046 100.688 177.095 100.666 177.189 100.615Z" fill="white"/>
<path d="M145.68 117.933C145.646 118.337 145.454 118.557 145.247 118.746C144.87 119.09 144.476 119.403 144.102 119.753C143.271 120.53 142.365 121.159 141.576 122.02C141.447 122.161 141.328 122.322 141.168 122.421C141.267 121.802 141.444 121.448 141.928 121.042C143.139 120.023 144.358 119.021 145.574 118.012C145.599 117.99 145.626 117.972 145.68 117.933Z" fill="white"/>
<path d="M161.771 101.273C161.701 101.805 161.21 102.085 160.679 102.325C159.711 102.762 158.699 103.155 157.739 103.599C155.608 104.585 153.275 105.371 151.257 106.47C150.928 106.649 150.624 106.857 150.211 106.98C150.44 106.167 150.887 105.709 152.128 105.195C155.239 103.908 158.372 102.643 161.496 101.37C161.562 101.344 161.633 101.322 161.771 101.273Z" fill="white"/>
<path d="M130.349 101.898C130.279 102.43 129.788 102.71 129.257 102.95C128.289 103.387 127.277 103.78 126.317 104.224C124.186 105.21 121.853 105.996 119.835 107.095C119.506 107.274 119.202 107.482 118.789 107.605C119.018 106.792 119.465 106.334 120.706 105.82C123.817 104.533 126.95 103.268 130.074 101.995C130.14 101.969 130.211 101.947 130.349 101.898Z" fill="white"/>
<path d="M113.171 106.407C113.22 106.556 113.211 106.719 113.147 106.896C113.082 107.074 113.009 107.146 112.928 107.113C112.798 107.063 112.543 106.944 112.162 106.754C111.822 107.39 111.119 108.205 110.053 109.2C108.988 110.195 108.277 110.692 107.92 110.692C107.847 110.692 107.799 110.663 107.774 110.605C108.438 110.019 109.107 109.433 109.779 108.847C110.889 107.856 111.557 107.109 111.784 106.605C111.565 106.465 111.343 106.324 111.116 106.184C110.914 106.002 110.812 105.75 110.812 105.428C110.812 105.246 110.942 104.978 111.201 104.623C111.46 104.268 111.683 104.09 111.869 104.09C112.412 104.09 112.683 104.42 112.683 105.081C112.683 105.346 112.626 105.626 112.513 105.923C112.717 106.032 112.935 106.193 113.171 106.407ZM112.15 105.838C112.174 105.747 112.186 105.652 112.186 105.553C112.186 105.124 112.056 104.909 111.797 104.909C111.594 104.909 111.481 105.004 111.457 105.194C111.433 105.359 111.664 105.574 112.15 105.838Z" fill="white"/>
<path d="M139.618 105.293C139.357 104.768 139.227 104.097 138.976 103.568C138.794 103.185 138.544 102.696 137.903 103.181C137.791 103.266 137.748 103.085 137.718 103.006C137.568 102.619 137.391 102.167 137.392 101.734C137.393 101.483 137.475 101.162 137.781 101.094C138.099 101.024 138.251 101.333 138.33 101.613C138.551 102.393 138.828 102.693 139.305 103.532C139.345 103.651 139.512 103.918 139.65 103.883C139.783 103.849 139.829 103.706 139.852 103.566C139.936 103.054 139.973 102.528 140.114 102.034C140.397 101.039 141.15 100.646 141.729 101.071C142.139 101.372 142.045 101.861 141.938 102.137C141.781 102.545 141.51 102.163 141.314 102.03C140.881 101.735 140.329 101.981 140.207 102.686C140.076 103.436 140.207 104.136 139.913 104.855C139.841 105.028 139.814 105.224 139.618 105.293Z" fill="white"/>
<path d="M124.876 109.474C125.098 109.598 125.34 109.964 125.601 110.573C125.688 110.793 125.734 111.001 125.737 111.196C125.74 111.366 125.721 111.52 125.681 111.656C125.592 112.007 125.317 112.185 124.856 112.193C124.541 112.198 124.215 112.136 123.878 112.005C123.789 112.356 123.488 112.535 122.974 112.543C122.659 112.548 122.343 112.438 122.025 112.214C121.707 111.989 121.482 111.721 121.351 111.408C121.166 110.977 121.071 110.621 121.067 110.34C121.064 110.153 121.114 110.02 121.218 109.942C121.27 109.95 121.362 110.085 121.492 110.346C121.818 111.055 122.222 111.406 122.704 111.398C123.039 111.392 123.204 111.194 123.198 110.803C123.197 110.761 123.182 110.665 123.154 110.517C123.125 110.369 123.11 110.248 123.109 110.154C123.107 110.001 123.147 109.915 123.231 109.897C123.263 109.922 123.292 109.949 123.319 109.979C123.345 110.009 123.369 110.04 123.391 110.074L123.457 110.277L123.556 110.543C123.709 110.923 123.99 111.11 124.399 111.104C124.839 111.097 125.058 110.966 125.054 110.71C125.053 110.633 125.03 110.549 124.987 110.456L124.841 110.152C124.83 110.118 124.813 110.063 124.791 109.987C124.769 109.911 124.757 109.843 124.756 109.783C124.753 109.646 124.793 109.543 124.876 109.474Z" fill="white"/>
<path d="M190.8 102.537C187.903 104.878 178.271 112.609 177.577 113.183C176.956 113.697 176.916 113.937 176.463 113.651C175.637 112.992 172.6 110.588 169.779 108.44C167.415 106.631 167.112 106.537 166.958 106.347C167.34 106.322 167.729 106.356 167.826 106.142C167.915 105.943 164.296 104.038 163.669 103.854C163.277 103.718 163.044 103.687 162.97 103.761C162.94 103.791 162.939 103.835 162.966 103.893C163.382 104.9 163.646 105.415 163.756 105.44C164.222 105.563 166.615 107.376 167.306 107.974C170.623 110.606 173.554 112.925 175.487 114.42C175.787 114.693 175.787 114.693 175.787 114.693C174.572 115.88 173.543 117.147 173.226 118.719C172.98 119.938 173.848 120.647 175.065 120.453C176.451 120.232 177.381 119.652 178.041 118.138C178.44 117.011 178.289 116.09 177.83 115.224C177.531 114.832 177.52 114.62 177.861 114.351C178.86 113.561 179.861 112.775 180.99 111.886C180.99 111.886 188.065 106.452 190.5 103.536C190.912 103.046 190.842 102.366 190.8 102.537ZM177.189 117.759C176.898 118.474 175.242 119.308 174.445 118.851C174.707 118.077 175.076 117.016 176.597 115.502C177.189 115.858 177.608 117.04 177.189 117.759Z" fill="white"/>
<path d="M182.669 116.456C182.721 116.893 182.753 117.317 182.763 117.729C182.799 119.182 182.623 120.234 182.235 120.884C182.086 121.133 181.975 121.259 181.902 121.261C181.788 121.264 181.765 120.984 181.834 120.422C181.92 119.71 181.907 118.97 181.794 118.202C181.358 115.708 180.745 111.956 179.955 106.947C179.849 106.03 179.255 102.628 178.996 102.214C178.931 102.119 179.083 101.559 179.452 100.533C179.471 100.471 179.501 100.44 179.543 100.439C179.646 100.436 179.796 100.621 179.993 100.992C180.329 101.561 181.799 105.349 181.805 105.568C181.807 105.638 180.956 104.834 180.66 104.587C180.645 104.833 180.878 105.626 181.399 108.591C182.025 112.122 182.449 114.745 182.669 116.456Z" fill="white"/>
<path d="M137.274 112.587C136.549 111.604 135.565 112.066 134.675 112.358C134.173 112.522 133.765 112.696 133.417 112.065C132.908 111.142 132.302 110.274 131.775 109.36C131.615 109.083 131.303 108.617 131.658 108.428C132.076 108.205 132.319 108.315 132.525 108.155C132.525 108.155 130.734 106.363 130.255 105.898C129.774 107.799 129.774 107.799 129.774 107.799C130.75 109.648 131.368 110.84 132.249 112.102C132.988 113.162 132.799 113.798 131.765 114.347C131.204 114.645 130.665 114.95 130.011 115.078C128.703 115.334 128.006 115.216 127.924 113.418C126.543 114.194 125.311 114.927 124.042 115.586C122.77 116.247 121.439 116.76 120.026 117.049C117.328 117.6 114.658 116.02 113.986 113.488C113.964 113.406 113.891 113.144 113.791 112.779C114.071 112.513 114.348 112.252 114.618 112.004C115.343 111.336 116.129 110.676 116.863 110.009C117.266 109.643 117.621 109.271 117.529 108.933C117.421 109.02 117.364 109.063 117.312 109.107C116.092 110.157 114.869 111.207 113.648 112.257C113.403 111.361 113.376 109.713 113.272 108.647C112.894 109.476 112.768 110.392 112.807 111.042C112.844 111.659 112.985 112.423 112.973 112.726C112.973 112.726 111.398 114.198 111 114.542L110.997 114.538C110.984 114.552 110.97 114.565 110.957 114.579C110.669 114.828 109.969 115.527 109.816 115.756C109.343 116.321 108.914 117.676 109.704 118.105C110.454 118.513 110.985 118.401 111.647 118.273C112.982 118.016 113.508 116.96 113.83 115.492C114.795 117.606 116.643 118.643 118.603 118.701C121.231 118.779 125.057 116.92 127.457 115.426C127.457 115.426 128.183 117.426 129.874 116.975C130.592 116.784 131.349 116.093 131.917 115.629C132.939 114.794 133.778 114.6 134.878 115.585C135.518 116.158 136.768 116.469 137.187 115.499C137.535 114.7 137.959 113.516 137.274 112.587ZM110.488 116.348C110.45 116.234 110.446 116.086 110.65 115.868C111.512 114.995 112.222 114.271 113.166 113.354C113.497 114.758 113.519 114.96 113.519 114.96C113.66 116.157 110.988 117.837 110.488 116.348ZM136.634 114.678C136.024 114.869 135.532 114.556 135.039 114.217C135.61 113.704 136.143 113.802 136.643 114.233C136.751 114.325 136.836 114.614 136.634 114.678Z" fill="white"/>
<path d="M8.81006 113.667C9.59806 114.117 10.2121 114.464 10.6521 114.709C11.1021 114.156 11.7711 113.36 11.7711 113.36L9.83506 112.308C9.57006 112.725 9.22806 113.178 8.81006 113.667Z" fill="white"/>
<path d="M17.5142 121.203L15.5782 120.022C15.3132 120.491 14.9712 120.999 14.5532 121.548C15.3412 122.054 15.9552 122.444 16.3952 122.719C16.8452 122.098 17.1992 121.628 17.4552 121.309C18.0902 121.664 18.7042 122.063 19.2992 122.506C19.7602 121.928 20.1332 121.416 20.4202 120.971C19.9992 120.742 19.4032 120.385 18.6332 119.901L17.5142 121.203Z" fill="white"/>
<path d="M34.8191 103.691C35.3791 103.267 35.5981 103.694 35.7571 104.029C35.9761 104.491 36.0901 105.078 36.3181 105.537C36.4891 105.477 36.5121 105.306 36.5751 105.153C36.8321 104.525 36.7181 103.912 36.8321 103.257C36.9391 102.641 37.4211 102.426 37.8001 102.684C37.9721 102.801 38.2081 103.134 38.3461 102.778C38.4391 102.537 38.5211 102.109 38.1631 101.846C37.6571 101.475 36.9981 101.818 36.7511 102.688C36.6281 103.12 36.5961 103.58 36.5221 104.027C36.5021 104.15 36.4621 104.274 36.3451 104.304C36.2251 104.335 36.0791 104.102 36.0441 103.998C35.6271 103.265 35.3851 103.002 35.1921 102.32C35.1231 102.076 34.9901 101.805 34.7121 101.866C34.4441 101.925 34.3721 102.206 34.3721 102.425C34.3711 102.803 34.5261 103.198 34.6571 103.537C34.6841 103.607 34.7211 103.765 34.8191 103.691Z" fill="white"/>
<path d="M5.68801 111.548C5.21601 112.255 4.86001 113.745 4.86001 113.83C4.74401 114.332 4.68601 114.869 4.84201 115.368C4.98501 115.827 5.24701 116.272 5.82601 116.236C6.40801 116.199 6.71701 115.87 6.72701 115.255C5.46101 115.462 5.05701 115.052 5.15101 113.814C5.18201 113.395 5.51401 112.192 5.68801 111.548Z" fill="white"/>
<path d="M22.512 105.96C23.094 105.923 23.403 105.594 23.413 104.979C22.147 105.186 21.743 104.776 21.837 103.538C21.869 103.12 22.2 101.917 22.374 101.273C21.902 101.98 21.546 103.47 21.546 103.555C21.43 104.057 21.372 104.594 21.528 105.093C21.672 105.552 21.933 105.997 22.512 105.96Z" fill="white"/>
<path d="M39.7023 107.221C40.5713 106.811 41.4883 106.447 42.3643 106.044C42.8453 105.823 43.2893 105.564 43.3533 105.073C43.2283 105.118 43.1643 105.138 43.1043 105.163C40.2753 106.339 37.4383 107.507 34.6213 108.696C33.4973 109.17 33.0933 109.593 32.8853 110.343C33.2593 110.229 33.5343 110.038 33.8323 109.872C35.6603 108.857 37.7723 108.132 39.7023 107.221Z" fill="white"/>
<path d="M3.62718 102.88C4.18718 102.456 4.40618 102.883 4.56518 103.218C4.78418 103.68 4.89818 104.267 5.12618 104.726C5.29718 104.666 5.32018 104.495 5.38318 104.342C5.64018 103.714 5.52618 103.101 5.64018 102.446C5.74718 101.83 6.23018 101.615 6.60818 101.873C6.78018 101.99 7.01618 102.323 7.15418 101.967C7.24718 101.726 7.32918 101.298 6.97118 101.035C6.46518 100.664 5.80618 101.007 5.55918 101.877C5.43618 102.309 5.40418 102.769 5.33018 103.216C5.31018 103.339 5.27018 103.463 5.15318 103.493C5.03318 103.524 4.88718 103.291 4.85218 103.187C4.43518 102.454 4.19318 102.191 4.00018 101.509C3.93118 101.265 3.79818 100.994 3.52018 101.055C3.25218 101.114 3.18018 101.395 3.18018 101.614C3.17918 101.992 3.33418 102.387 3.46518 102.726C3.49218 102.795 3.52918 102.954 3.62718 102.88Z" fill="white"/>
<path d="M43.9912 112.377C44.2882 112.377 44.8812 111.995 45.7692 111.231C46.6572 110.467 47.2432 109.841 47.5272 109.352C47.8442 109.498 48.0572 109.59 48.1652 109.628C48.2322 109.653 48.2932 109.598 48.3472 109.462C48.4012 109.326 48.4082 109.2 48.3672 109.086C48.1712 108.921 47.9892 108.798 47.8202 108.715C47.9152 108.487 47.9622 108.271 47.9622 108.068C47.9622 107.561 47.7362 107.307 47.2832 107.307C47.1272 107.307 46.9422 107.443 46.7262 107.716C46.5102 107.989 46.4022 108.195 46.4022 108.334C46.4022 108.581 46.4872 108.775 46.6552 108.914C46.8442 109.022 47.0302 109.129 47.2122 109.237C47.0232 109.624 46.4662 110.198 45.5402 110.959C44.9792 111.409 44.4222 111.86 43.8682 112.31C43.8902 112.355 43.9302 112.377 43.9912 112.377ZM46.9392 108.154C46.9592 108.008 47.0542 107.935 47.2232 107.935C47.4392 107.935 47.5472 108.1 47.5472 108.43C47.5472 108.506 47.5372 108.579 47.5172 108.649C47.1112 108.445 46.9192 108.28 46.9392 108.154Z" fill="white"/>
<path d="M3.92432 108.227C4.31032 108.101 4.58932 107.907 4.89332 107.736C6.75732 106.687 8.93532 105.895 10.9123 104.939C11.8023 104.508 12.7453 104.119 13.6433 103.695C14.1363 103.462 14.5883 103.196 14.6303 102.732C14.5013 102.781 14.4353 102.803 14.3733 102.83C11.4663 104.082 8.55232 105.327 5.65832 106.591C4.50532 107.094 4.10332 107.512 3.92432 108.227Z" fill="white"/>
<path d="M56.6421 109.035C55.9331 106.111 55.7711 105.266 55.7701 105.02C56.0821 105.246 56.9821 105.993 56.9761 105.923C56.9571 105.705 55.2481 102.023 54.8761 101.477C54.6571 101.119 54.4951 100.945 54.3921 100.955C54.3501 100.959 54.3221 100.992 54.3071 101.055C54.0041 102.103 53.8891 102.672 53.9591 102.763C54.2441 103.159 55.0541 106.514 55.2181 107.422C55.7181 109.652 57.2141 115.498 57.4451 116.632C57.6121 117.456 57.9511 118.546 56.7381 118.961C55.6401 119.337 54.8041 118.864 54.2261 117.881C53.8171 117.186 53.4931 116.456 53.3111 115.662C52.2741 111.148 51.2321 106.636 50.1711 102.036C49.4991 103.073 49.3631 104.05 49.5881 105.236C50.2821 108.885 51.1511 112.503 51.5391 116.21C51.6501 117.266 51.4971 118.052 50.3141 118.408C49.1111 118.769 48.1471 118.595 47.4851 117.488C47.1151 116.869 46.8801 116.166 46.5911 115.517C44.1831 120.86 40.8761 118.467 40.8761 118.467C40.4581 118.309 40.1171 118.054 40.0501 117.624C39.9611 117.053 40.8511 116.702 41.4431 116.421C41.8751 116.216 42.4241 116.005 42.4241 116.005C42.8951 115.365 43.1111 114.664 43.1111 114.664C40.6211 114.006 37.4241 113.076 34.7831 113.822C33.8531 114.085 33.3371 114.534 33.3521 115.544C35.5521 115.642 36.2741 115.907 37.0881 116.768C37.4321 117.131 37.6011 117.399 37.0661 117.694C33.5451 119.639 30.5561 119 29.7131 114.65C29.2251 112.13 28.9471 109.566 28.4311 107.052C28.0991 105.437 27.8211 103.77 27.0061 102.198C26.3541 103.096 26.4511 103.876 26.6791 104.758C27.6101 108.366 28.4691 111.992 28.8191 115.723C28.9191 116.789 28.3891 117.378 27.5431 117.678C26.6281 118.003 25.6341 117.951 25.1211 116.949C24.8761 116.471 24.8951 116.173 24.4921 115.409C23.1801 117.926 20.6861 118.955 19.9101 117.582C18.4341 113.69 19.2321 111.547 17.5681 110.354C16.7011 113.499 15.1121 114.029 13.6171 112.099C13.4311 112.706 13.3201 113.099 13.2851 113.229C13.2851 113.229 13.8511 114.195 14.1131 114.567C15.5281 116.577 15.4051 117.824 13.2621 118.887C10.9371 120.041 8.50407 120.84 5.88607 120.954C2.45307 121.104 0.925071 119.309 0.808071 116.51C0.777071 115.766 1.25807 113.506 2.02207 111.748C1.39107 112.306 -0.549929 116.956 0.150071 119.194C0.493071 120.291 1.20607 121.98 3.68307 122.542C6.97107 123.289 9.93807 122.306 12.8201 120.731C13.9231 120.128 14.9101 119.109 15.4111 117.447C15.7761 116.236 15.5511 114.975 15.5511 114.975C16.8481 114.409 17.0721 113.977 17.9441 112.631C17.9441 112.631 18.6671 116.236 19.2231 118.09C19.8131 119.791 21.5401 120.874 22.9191 119.377C23.7371 118.489 23.5371 118.159 24.1231 119.665C24.3311 120.199 25.2041 121.989 26.0251 119.9C26.1191 119.662 26.1381 119.034 26.2751 119.174C26.6401 119.546 28.6341 119.182 29.2241 117.426C29.6001 117.526 29.7191 117.806 29.8641 118.039C31.1451 120.099 32.5541 120.599 34.7791 119.753C35.7011 119.403 36.6331 119.074 37.5291 118.662C38.2481 118.332 38.7271 118.457 39.3481 118.996C39.6591 119.265 39.9521 119.492 40.2351 119.677C40.9941 120.376 41.7671 121.313 43.7601 120.351C44.3001 120.09 45.0631 119.539 45.1551 119.488C45.2481 119.437 45.3601 119.882 45.6531 120.636C45.8611 121.17 46.7341 122.96 47.5551 120.871C47.6491 120.633 47.6681 120.005 47.8051 120.145C48.0161 120.36 48.9751 120.471 49.8651 120.192C50.1581 120.15 50.4601 120.027 50.7791 119.78C51.8181 118.974 51.9441 117.676 52.4851 116.433C53.0801 118.168 53.3151 118.813 54.0521 119.768C54.8861 120.848 57.7401 121.105 58.3951 118.329C58.7441 116.846 57.0001 110.497 56.6421 109.035ZM38.1491 115.55C38.7871 115.077 39.5101 115.213 40.1841 115.766C39.6751 116.229 39.2941 116.962 38.4831 116.387C38.2411 116.216 37.8191 115.795 38.1491 115.55Z" fill="white"/>
</svg>

