<svg width="28" height="25" viewBox="0 0 28 25" fill="none" xmlns="http://www.w3.org/2000/svg">
<path d="M27.9686 11.7283C27.9696 10.5993 27.6929 9.48736 27.1627 8.49055C26.6326 7.49374 25.8654 6.64267 24.9287 6.01238C23.992 5.38209 22.9146 4.99194 21.7915 4.87633C20.6684 4.76071 19.5341 4.92319 18.4887 5.34944C17.4432 5.77568 16.5187 6.4526 15.7966 7.3205C15.0745 8.18841 14.577 9.22064 14.348 10.3262C14.119 11.4317 14.1656 12.5767 14.4835 13.66C14.8015 14.7433 15.3811 15.7318 16.1712 16.5382V23.5257C16.1711 23.6933 16.2139 23.8582 16.2954 24.0047C16.377 24.1512 16.4947 24.2744 16.6373 24.3626C16.7799 24.4507 16.9427 24.501 17.1102 24.5085C17.2777 24.516 17.4443 24.4806 17.5943 24.4056L21.0868 22.6581L24.5793 24.4056C24.7292 24.4806 24.8959 24.516 25.0634 24.5085C25.2309 24.501 25.3937 24.4507 25.5363 24.3626C25.6789 24.2744 25.7966 24.1512 25.8781 24.0047C25.9597 23.8582 26.0025 23.6933 26.0024 23.5257V16.5382C27.2633 15.2549 27.9694 13.5274 27.9686 11.7283ZM21.0868 6.81274C22.059 6.81274 23.0094 7.10104 23.8177 7.64117C24.6261 8.1813 25.2561 8.949 25.6282 9.84721C26.0002 10.7454 26.0976 11.7338 25.9079 12.6873C25.7182 13.6408 25.2501 14.5167 24.5626 15.2041C23.8752 15.8916 22.9993 16.3598 22.0458 16.5494C21.0922 16.7391 20.1039 16.6418 19.2057 16.2697C18.3075 15.8977 17.5398 15.2676 16.9996 14.4593C16.4595 13.6509 16.1712 12.7005 16.1712 11.7283C16.1712 10.4246 16.6891 9.17433 17.611 8.25248C18.5328 7.33063 19.7831 6.81274 21.0868 6.81274ZM21.5267 20.6796C21.3901 20.6112 21.2395 20.5756 21.0868 20.5756C20.9341 20.5756 20.7834 20.6112 20.6468 20.6796L18.1374 21.9355V17.9453C19.059 18.383 20.0665 18.6101 21.0868 18.6101C22.1071 18.6101 23.1145 18.383 24.0361 17.9453V21.9355L21.5267 20.6796ZM14.205 19.5932C14.205 19.854 14.1014 20.104 13.917 20.2884C13.7327 20.4728 13.4826 20.5763 13.2219 20.5763H2.40763C1.88616 20.5763 1.38604 20.3692 1.0173 20.0004C0.648562 19.6317 0.441406 19.1316 0.441406 18.6101V2.88029C0.441406 2.35881 0.648562 1.8587 1.0173 1.48996C1.38604 1.12122 1.88616 0.914063 2.40763 0.914062H24.0361C24.5576 0.914063 25.0577 1.12122 25.4265 1.48996C25.7952 1.8587 26.0024 2.35881 26.0024 2.88029C26.0024 3.14103 25.8988 3.39109 25.7144 3.57546C25.53 3.75983 25.28 3.8634 25.0192 3.8634C24.7585 3.8634 24.5084 3.75983 24.3241 3.57546C24.1397 3.39109 24.0361 3.14103 24.0361 2.88029H2.40763V18.6101H13.2219C13.4826 18.6101 13.7327 18.7137 13.917 18.8981C14.1014 19.0824 14.205 19.3325 14.205 19.5932ZM12.2388 12.7114C12.2388 12.9722 12.1352 13.2222 11.9508 13.4066C11.7664 13.591 11.5164 13.6945 11.2557 13.6945H6.34009C6.07935 13.6945 5.82929 13.591 5.64492 13.4066C5.46055 13.2222 5.35697 12.9722 5.35697 12.7114C5.35697 12.4507 5.46055 12.2006 5.64492 12.0163C5.82929 11.8319 6.07935 11.7283 6.34009 11.7283H11.2557C11.5164 11.7283 11.7664 11.8319 11.9508 12.0163C12.1352 12.2006 12.2388 12.4507 12.2388 12.7114ZM12.2388 8.77897C12.2388 9.03971 12.1352 9.28977 11.9508 9.47414C11.7664 9.65851 11.5164 9.76208 11.2557 9.76208H6.34009C6.07935 9.76208 5.82929 9.65851 5.64492 9.47414C5.46055 9.28977 5.35697 9.03971 5.35697 8.77897C5.35697 8.51823 5.46055 8.26818 5.64492 8.08381C5.82929 7.89944 6.07935 7.79586 6.34009 7.79586H11.2557C11.5164 7.79586 11.7664 7.89944 11.9508 8.08381C12.1352 8.26818 12.2388 8.51823 12.2388 8.77897Z" fill="#333333"/>
</svg>
