<svg width="83" height="35" viewBox="0 0 83 35" fill="none" xmlns="http://www.w3.org/2000/svg">
<path d="M15.4182 7.79107L16.7196 10.3947L4.70381 9.25809L3.40234 6.65723L15.4182 7.79107Z" fill="#273C97"/>
<path d="M13.7954 18.3836L15.0968 20.9844L4.46354 19.9815L3.16211 17.3779L13.7954 18.3836Z" fill="#273C97"/>
<path d="M0.0664062 28.2422L20.4572 30.1686L20.4202 32.6447L1.37059 30.8458L0.0664062 28.2422Z" fill="#273C97"/>
<path d="M26.1113 33.1871L25.3179 33.1118L25.3398 31.6445L26.1113 33.1871Z" fill="#273C97"/>
<path d="M25.5165 26.1624L27.8214 22.3358L26.1341 33.1878L25.3408 31.6453L25.4156 26.638L25.5165 26.1624Z" fill="#273C97"/>
<path d="M30.4083 5.62857L29.0792 14.2878L27.3807 14.2625L29.1039 3.03594L30.4083 5.62857Z" fill="#273C97"/>
<path d="M25.4221 26.2742L25.49 26.1621L25.4167 26.6383L25.4221 26.2742Z" fill="#273C97"/>
<path d="M29.1046 3.02506L27.3812 14.2626L26.8601 14.2548L23.0673 20.5717L19.4926 14.1447L13.705 14.0582L20.5176 26.201L20.4583 30.1688L0.0674888 28.2423L0.97506 22.3236L12.9909 23.4575L13.3942 20.827L13.77 18.3836L3.13673 17.3779L4.07463 11.2749L14.7079 12.2778L15.0226 10.2333L15.3983 7.78994L3.37973 6.65605L4.30208 0.671383L29.1046 3.02506Z" fill="#273C97"/>
<path d="M37.5473 17.3824C33.5106 17.322 30.2105 20.5684 30.1503 24.5996C30.0899 28.6362 33.2921 31.9385 37.3288 31.9988C41.3627 32.0591 44.6871 28.8517 44.7474 24.8178C44.8076 20.7866 41.5785 17.4426 37.5473 17.3824ZM37.3859 28.1827C35.475 28.1541 33.9408 26.5509 33.9694 24.6401C33.9982 22.71 35.5794 21.1727 37.4902 21.2012C39.4203 21.2301 40.9577 22.8113 40.9288 24.7441C40.8974 26.6549 39.316 28.2115 37.3859 28.1827Z" fill="#273C97"/>
<path d="M54.7982 17.6402L54.6668 26.4304C54.6511 27.4837 53.778 28.3284 52.7274 28.3127C51.6742 28.2969 50.8294 27.4293 50.8452 26.3733L50.9766 17.5831L47.1191 17.5254L46.9868 26.3763C46.9388 29.5913 49.4539 32.1827 52.6689 32.2308C55.8453 32.2783 58.4753 29.7638 58.5234 26.5488L58.6557 17.6978L54.7982 17.6402Z" fill="#273C97"/>
<path d="M66.6438 29.8719C66.1587 30.0384 65.785 30.1266 65.5286 30.1228C65.3466 30.12 65.1929 30.0708 65.0647 29.9779C64.9393 29.8823 64.8417 29.765 64.808 29.6238C64.7742 29.4854 64.7513 28.9887 64.764 28.1367L64.8281 23.8518L66.5927 23.8782L66.625 21.7192L64.8603 21.6929L64.9151 18.0284L61.9434 19.6001L61.9128 21.6488L60.7382 21.6312L60.7059 23.7902L61.8805 23.8078L61.8114 28.4345C61.7968 29.4106 61.9194 30.0633 61.9753 30.384C62.0402 30.8401 62.214 31.2012 62.3948 31.4687C62.5784 31.7334 62.895 31.956 63.2896 32.1274C63.6869 32.2988 64.1488 32.3912 64.6452 32.3986C65.4586 32.4108 66.1941 32.2839 66.8406 32.0205L66.6438 29.8719Z" fill="#273C97"/>
<path d="M78.1189 24.9524C78.0989 24.635 78.0669 24.3725 78.0232 24.1622C77.9334 23.7086 77.763 23.3034 77.5093 22.93C77.2556 22.5595 76.8741 22.2504 76.362 22.0083C75.8582 21.7691 75.2285 21.6411 74.5916 21.6316C73.348 21.613 72.3091 22.116 71.3119 23.1435L71.3908 17.8633L68.6445 17.8223L68.4274 32.3449L71.1737 32.386L71.2538 27.0258C71.2669 26.149 71.4203 25.4866 71.5924 25.0397C71.7673 24.5955 72.0619 24.2607 72.4263 24.051C72.7881 23.8303 73.2199 23.7264 73.6749 23.7332C74.0719 23.7391 74.4125 23.8297 74.6746 24.0074C74.9423 24.1851 75.038 24.4237 75.1356 24.7175C75.2415 25.0142 75.1953 25.7058 75.1789 26.8059L75.0946 32.4474L78.0449 32.4915L78.1384 26.2352C78.1485 25.7416 78.1412 25.3113 78.1189 24.9524ZM77.8838 31.0908C77.8024 31.3654 77.6669 31.5785 77.48 31.7191C77.2708 31.8787 76.9938 31.96 76.6463 31.9548C76.252 31.9489 75.9423 31.8202 75.7089 31.5685C75.4783 31.3141 75.3676 30.9677 75.3742 30.5293C75.3808 30.0853 75.5018 29.7397 75.7454 29.4951C75.9835 29.2504 76.3052 29.1311 76.7023 29.1371C77.0331 29.142 77.294 29.2176 77.4849 29.3611C77.6786 29.5047 77.8132 29.7218 77.8944 30.0126L77.1894 30.1289C77.1666 29.9879 77.1159 29.8796 77.0315 29.8066C76.9498 29.7337 76.8401 29.6962 76.7105 29.6943C76.5285 29.6916 76.387 29.7501 76.2776 29.8726C76.1737 29.9924 76.1155 30.1956 76.1112 30.4879C76.1064 30.8077 76.1554 31.0319 76.2638 31.1659C76.3693 31.3026 76.5089 31.3681 76.6937 31.3708C76.8288 31.3729 76.9396 31.3387 77.0263 31.26C77.1129 31.1841 77.1755 31.0554 77.2142 30.8657L77.8908 30.9916L77.8893 31.0909L77.8838 31.0908Z" fill="#273C97"/>
<path d="M80.8791 29.6165C80.6157 29.3423 80.2786 29.1994 79.8595 29.1931C79.5892 29.1891 79.3429 29.2488 79.1205 29.3641C78.9009 29.4821 78.7301 29.6533 78.6054 29.8776C78.4863 30.0992 78.4221 30.3327 78.4184 30.5781C78.4137 30.8952 78.4704 31.1635 78.5829 31.3859C78.7009 31.6083 78.872 31.7818 79.1021 31.8928C79.3264 32.012 79.5682 32.0735 79.8246 32.0774C80.2327 32.0835 80.5712 31.9506 80.8455 31.6817C81.1198 31.41 81.26 31.0674 81.2663 30.651C81.2725 30.2374 81.1425 29.8907 80.8791 29.6165ZM80.311 31.2738C80.182 31.418 80.021 31.4873 79.828 31.4845C79.635 31.4816 79.4789 31.4075 79.3515 31.2595C79.2213 31.1113 79.161 30.9008 79.1651 30.6279C79.1692 30.3549 79.2357 30.1463 79.3703 29.9994C79.4993 29.8579 79.6603 29.7858 79.8533 29.7887C80.0463 29.7916 80.2024 29.8684 80.3298 30.0137C80.4544 30.1645 80.5175 30.3723 80.5135 30.6425C80.5094 30.9182 80.44 31.1296 80.311 31.2738Z" fill="#273C97"/>
<path d="M82.4487 31.4323C82.3835 31.3652 82.2903 31.3224 82.191 31.3209C81.9897 31.3179 81.8218 31.4781 81.8188 31.6767C81.8173 31.7788 81.8545 31.8704 81.9225 31.9376C81.9905 32.0048 82.0781 32.0475 82.1801 32.049C82.2794 32.0505 82.3738 32.0133 82.441 31.9453C82.5054 31.8801 82.5509 31.7897 82.5524 31.6877C82.5539 31.5912 82.5139 31.4968 82.4487 31.4323Z" fill="#273C97"/>
</svg>
