<svg width="17" height="13" viewBox="0 0 17 13" fill="none" xmlns="http://www.w3.org/2000/svg">
<path d="M2.33569 12.7597C1.90231 12.7597 1.53118 12.6053 1.2223 12.2964C0.913419 11.9875 0.759242 11.6167 0.759767 11.1838V1.72827C0.759767 1.29489 0.914207 0.923759 1.22309 0.614878C1.53197 0.305997 1.90284 0.15182 2.33569 0.152345H14.9431C15.3764 0.152345 15.7476 0.306785 16.0565 0.615666C16.3653 0.924547 16.5195 1.29541 16.519 1.72827V11.1838C16.519 11.6172 16.3645 11.9883 16.0557 12.2972C15.7468 12.6061 15.3759 12.7603 14.9431 12.7597H2.33569ZM8.63938 7.244L14.9431 3.30419V1.72827L8.63938 5.66807L2.33569 1.72827V3.30419L8.63938 7.244Z" fill="#F1F1F1"/>
</svg>
