<svg width="16" height="15" viewBox="0 0 16 15" fill="none" xmlns="http://www.w3.org/2000/svg">
<g clip-path="url(#clip0_3107_7596)">
<path d="M12.3737 0.936525H8.77227C8.66031 0.936443 8.55288 0.980681 8.47344 1.05957L1.27344 8.25781C1.11583 8.4162 1.02734 8.63056 1.02734 8.854C1.02734 9.07745 1.11583 9.29181 1.27344 9.4502L4.70117 12.8779C4.85961 13.0356 5.07402 13.1241 5.29751 13.1241C5.52101 13.1241 5.73541 13.0356 5.89385 12.8779L13.0918 5.68262C13.1707 5.60318 13.2149 5.49575 13.2148 5.38379V1.78027C13.2154 1.66954 13.194 1.5598 13.152 1.45736C13.1099 1.35492 13.048 1.2618 12.9699 1.18338C12.8917 1.10496 12.7988 1.04277 12.6965 1.00041C12.5941 0.958041 12.4845 0.93633 12.3737 0.936525Z" stroke="#CE1126" stroke-width="1.23356" stroke-linecap="round" stroke-linejoin="round"/>
<path d="M10.8711 4.21777C10.6857 4.21777 10.5044 4.16279 10.3502 4.05978C10.1961 3.95676 10.0759 3.81035 10.005 3.63904C9.934 3.46773 9.91543 3.27923 9.95161 3.09738C9.98778 2.91552 10.0771 2.74847 10.2082 2.61736C10.3393 2.48625 10.5063 2.39696 10.6882 2.36079C10.8701 2.32461 11.0586 2.34318 11.2299 2.41414C11.4012 2.48509 11.5476 2.60526 11.6506 2.75943C11.7536 2.9136 11.8086 3.09485 11.8086 3.28027C11.8086 3.52891 11.7098 3.76737 11.534 3.94319C11.3582 4.119 11.1197 4.21777 10.8711 4.21777Z" fill="#CE1126"/>
<path d="M7.29688 14.0615L14.9727 6.38574C15.0108 6.34725 15.0409 6.30148 15.061 6.25115C15.0811 6.20083 15.0909 6.14697 15.0898 6.09277V2.34277" stroke="#CE1126" stroke-width="1.23356" stroke-linecap="round" stroke-linejoin="round"/>
</g>
<defs>
<clipPath id="clip0_3107_7596">
<rect width="15" height="15" fill="white" transform="translate(0.558594)"/>
</clipPath>
</defs>
</svg>
