<svg width="24" height="26" viewBox="0 0 24 26" fill="none" xmlns="http://www.w3.org/2000/svg">
<path d="M4.61914 11.8359L11.4941 0.585938L18.3691 11.8359H4.61914ZM18.3691 25.5859C16.8066 25.5859 15.4787 25.0393 14.3854 23.9459C13.2921 22.8526 12.745 21.5243 12.7441 19.9609C12.7441 18.3984 13.2912 17.0705 14.3854 15.9772C15.4796 14.8839 16.8075 14.3368 18.3691 14.3359C19.9316 14.3359 21.26 14.883 22.3541 15.9772C23.4483 17.0714 23.995 18.3993 23.9941 19.9609C23.9941 21.5234 23.4475 22.8518 22.3541 23.9459C21.2608 25.0401 19.9325 25.5868 18.3691 25.5859ZM0.244141 24.9609V14.9609H10.2441V24.9609H0.244141ZM18.3691 23.0859C19.2441 23.0859 19.9837 22.7839 20.5879 22.1797C21.1921 21.5755 21.4941 20.8359 21.4941 19.9609C21.4941 19.0859 21.1921 18.3464 20.5879 17.7422C19.9837 17.138 19.2441 16.8359 18.3691 16.8359C17.4941 16.8359 16.7546 17.138 16.1504 17.7422C15.5462 18.3464 15.2441 19.0859 15.2441 19.9609C15.2441 20.8359 15.5462 21.5755 16.1504 22.1797C16.7546 22.7839 17.4941 23.0859 18.3691 23.0859ZM2.74414 22.4609H7.74414V17.4609H2.74414V22.4609ZM9.05664 9.33594H13.9316L11.4941 5.39844L9.05664 9.33594Z" fill="#333333"/>
</svg>
