<svg width="13" height="13" viewBox="0 0 13 13" fill="none" xmlns="http://www.w3.org/2000/svg">
<path d="M3.0625 5.875L6.5 0.25L9.9375 5.875H3.0625ZM9.9375 12.75C9.15625 12.75 8.49229 12.4767 7.94562 11.93C7.39896 11.3833 7.12542 10.7192 7.125 9.9375C7.125 9.15625 7.39854 8.49229 7.94562 7.94562C8.49271 7.39896 9.15667 7.12542 9.9375 7.125C10.7188 7.125 11.3829 7.39854 11.93 7.94562C12.4771 8.49271 12.7504 9.15667 12.75 9.9375C12.75 10.7188 12.4767 11.3829 11.93 11.93C11.3833 12.4771 10.7192 12.7504 9.9375 12.75ZM0.875 12.4375V7.4375H5.875V12.4375H0.875ZM9.9375 11.5C10.375 11.5 10.7448 11.349 11.0469 11.0469C11.349 10.7448 11.5 10.375 11.5 9.9375C11.5 9.5 11.349 9.13021 11.0469 8.82812C10.7448 8.52604 10.375 8.375 9.9375 8.375C9.5 8.375 9.13021 8.52604 8.82812 8.82812C8.52604 9.13021 8.375 9.5 8.375 9.9375C8.375 10.375 8.52604 10.7448 8.82812 11.0469C9.13021 11.349 9.5 11.5 9.9375 11.5ZM2.125 11.1875H4.625V8.6875H2.125V11.1875ZM5.28125 4.625H7.71875L6.5 2.65625L5.28125 4.625Z" fill="#CE1126"/>
</svg>
