<svg width="18" height="20" viewBox="0 0 18 20" fill="none" xmlns="http://www.w3.org/2000/svg">
<path d="M3.22239 5.71759C3.96333 5.72373 4.62869 5.43674 5.13944 4.98273L12.0571 9.08617C12.0065 9.30999 11.9656 9.5339 11.9637 9.76788C11.9617 10.0019 11.9989 10.2264 12.0458 10.451L5.13946 14.401C4.61704 13.9092 3.92735 13.6013 3.15717 13.5949C1.53882 13.5815 0.221623 14.877 0.208224 16.4954C0.194824 18.1138 1.49039 19.431 3.10874 19.4444C4.7271 19.4578 6.0443 18.1622 6.05769 16.5438C6.05963 16.3099 6.02249 16.0853 5.9756 15.8607L12.8819 11.9107C13.4043 12.4025 14.094 12.7105 14.8642 12.7168C16.4825 12.7302 17.7997 11.4347 17.8131 9.81631C17.8265 8.19796 16.531 6.88076 14.9126 6.86736C14.1424 6.86098 13.4477 7.15747 12.9173 7.64057L6.00947 3.52747C6.05991 3.32314 6.09093 3.1089 6.09271 2.89442C6.1057 1.32481 4.83914 0.0371021 3.26953 0.0241065C1.69993 0.0111109 0.412217 1.27767 0.399222 2.84728C0.386226 4.41689 1.65279 5.7046 3.22239 5.71759ZM3.12489 17.4945C2.58869 17.4901 2.15361 17.0477 2.15805 16.5115C2.16249 15.9753 2.60483 15.5403 3.14103 15.5447C3.67723 15.5491 4.11231 15.9915 4.10787 16.5277C4.10343 17.0639 3.66109 17.499 3.12489 17.4945ZM14.8965 8.81718C15.4327 8.82162 15.8678 9.26397 15.8633 9.80017C15.8589 10.3364 15.4165 10.7714 14.8803 10.767C14.3441 10.7626 13.9091 10.3202 13.9135 9.78402C13.9179 9.24782 14.3603 8.81274 14.8965 8.81718ZM3.2542 1.87644C3.7904 1.88088 4.22548 2.32322 4.22104 2.85942C4.2166 3.39562 3.77425 3.8307 3.23805 3.82626C2.70185 3.82182 2.26677 3.37948 2.27121 2.84328C2.27565 2.30708 2.718 1.872 3.2542 1.87644Z" fill="#333333"/>
</svg>
