<svg width="65" height="65" viewBox="0 0 65 65" fill="none" xmlns="http://www.w3.org/2000/svg">
<path d="M32.5 0C41.1195 0 49.386 3.4241 55.481 9.51903C61.5759 15.614 65 23.8805 65 32.5C65 41.1195 61.5759 49.386 55.481 55.481C49.386 61.5759 41.1195 65 32.5 65C23.8805 65 15.614 61.5759 9.51903 55.481C3.4241 49.386 0 41.1195 0 32.5C0 23.8805 3.4241 15.614 9.51903 9.51903C15.614 3.4241 23.8805 0 32.5 0ZM6.09375 32.5C6.09375 39.5034 8.87583 46.2199 13.828 51.172C18.7801 56.1242 25.4966 58.9062 32.5 58.9062C39.5034 58.9062 46.2199 56.1242 51.172 51.172C56.1242 46.2199 58.9062 39.5034 58.9062 32.5C58.9062 25.4966 56.1242 18.7801 51.172 13.828C46.2199 8.87583 39.5034 6.09375 32.5 6.09375C25.4966 6.09375 18.7801 8.87583 13.828 13.828C8.87583 18.7801 6.09375 25.4966 6.09375 32.5ZM25.9147 21.2347L43.2372 31.6306C43.3869 31.721 43.5107 31.8486 43.5967 32.0009C43.6826 32.1532 43.7278 32.3251 43.7278 32.5C43.7278 32.6749 43.6826 32.8468 43.5967 32.9991C43.5107 33.1514 43.3869 33.279 43.2372 33.3694L25.9147 43.7653C25.7606 43.8581 25.5847 43.9083 25.4049 43.9109C25.2251 43.9134 25.0479 43.8681 24.8913 43.7797C24.7347 43.6913 24.6044 43.5629 24.5137 43.4076C24.423 43.2523 24.3751 43.0758 24.375 42.8959V22.1081C24.3744 21.928 24.4217 21.7509 24.5121 21.595C24.6025 21.4392 24.7328 21.3102 24.8895 21.2213C25.0462 21.1324 25.2237 21.0868 25.4039 21.0891C25.5841 21.0915 25.7604 21.1417 25.9147 21.2347Z" fill="#CE1126"/>
</svg>
